<svg version="1.1" id="Layer_1" xmlns="http://www.w3.org/2000/svg" xmlns:xlink="http://www.w3.org/1999/xlink" x="0px" y="0px"
	 width="100%" viewBox="0 0 1024 1024" enable-background="new 0 0 1024 1024" xml:space="preserve">
<path fill="#F2EFEE" opacity="1.000000" stroke="none" 
	d="
M1025.000000,346.000000 
	C1025.000000,572.666687 1025.000000,798.833313 1025.000000,1025.000000 
	C683.666687,1025.000000 342.333344,1025.000000 1.000000,1025.000000 
	C1.000000,683.666687 1.000000,342.333344 1.000000,1.000000 
	C342.333344,1.000000 683.666687,1.000000 1025.000000,1.000000 
	C1025.000000,115.833336 1025.000000,230.666672 1025.000000,346.000000 
M937.675171,843.181763 
	C937.822449,842.785828 937.969727,842.389954 938.790100,841.854675 
	C938.812500,840.548645 938.834900,839.242676 938.762329,837.275818 
	C938.875122,836.848633 938.987915,836.421509 939.822998,835.823425 
	C939.800903,833.842102 939.778809,831.860718 939.617188,829.067871 
	C939.790771,827.709534 939.964355,826.351135 940.904602,824.780457 
	C941.269165,822.752869 941.952209,820.725464 941.952942,818.697754 
	C942.004089,676.769409 942.001282,534.841064 942.001648,392.912689 
	C942.001831,330.777405 942.014954,268.642059 941.919373,206.506912 
	C941.916565,204.672699 940.755493,202.840271 939.933289,200.203796 
	C939.890381,198.833603 939.847473,197.463394 940.388000,195.648453 
	C939.971802,194.101410 939.555542,192.554352 938.938354,190.294754 
	C938.888367,189.559937 938.838440,188.825134 939.386230,187.635391 
	C938.634033,185.092453 937.881836,182.549515 936.896301,179.404419 
	C936.824524,178.982300 936.752686,178.560196 937.254700,177.747314 
	C936.509521,175.831863 935.764343,173.916412 934.669495,171.678467 
	C934.504333,171.401093 934.288330,171.171616 934.053284,170.323044 
	C934.042908,169.878876 934.032532,169.434692 934.501221,168.572891 
	C933.689148,167.049896 932.877075,165.526901 931.728455,163.650101 
	C931.547241,163.370407 931.310242,163.151031 931.020203,162.337463 
	C930.986938,161.902420 930.953613,161.467361 931.431335,160.636307 
	C929.947632,158.092926 928.463989,155.549561 926.467896,152.730072 
	C926.035522,152.130997 925.603210,151.531921 925.009338,150.237808 
	C922.268433,146.026169 919.527588,141.814529 916.676697,137.343353 
	C916.676697,137.343353 916.432983,137.201675 916.101501,136.663635 
	C910.393982,130.791138 904.686401,124.918633 898.993713,118.994949 
	C898.993713,118.994949 898.948730,119.023628 898.627014,118.445320 
	C896.453552,116.911087 894.280151,115.376846 892.053162,113.945755 
	C892.053162,113.945755 892.154602,113.888969 891.912537,113.350349 
	C890.924194,112.750549 889.935852,112.150749 888.748474,111.195923 
	C888.748474,111.195923 888.351929,111.104294 887.882446,110.686043 
	C882.587219,107.773674 877.292053,104.861305 871.927979,101.368690 
	C871.274048,101.272949 870.620117,101.177200 869.306702,101.053825 
	C868.536377,100.679382 867.766052,100.304932 866.879028,99.264084 
	C865.229858,98.899956 863.580627,98.535835 861.193787,98.129364 
	C859.793213,97.702339 858.392700,97.275314 856.907043,96.273659 
	C856.247620,96.241531 855.588257,96.209404 854.266968,96.178337 
	C853.841797,96.062370 853.416565,95.946404 852.895630,95.248154 
	C852.225586,95.257027 851.555481,95.265900 850.230957,95.285881 
	C849.818176,95.146446 849.405457,95.007011 848.872559,94.220444 
	C847.883362,94.223877 846.894165,94.227303 845.248169,94.251884 
	C844.829834,94.126610 844.411438,94.001335 843.835815,93.174126 
	C842.206360,93.197296 840.576904,93.220474 838.096924,93.337425 
	C836.395203,93.171913 834.693481,93.006401 832.774109,92.078514 
	C830.910522,91.719269 829.047241,91.047600 827.183350,91.046013 
	C764.084106,90.992516 700.984741,91.002876 637.885437,91.003593 
	C609.748779,91.003906 581.612061,90.968102 553.475891,91.084641 
	C551.650024,91.092209 549.829041,92.268402 547.083557,93.084045 
	C518.645081,93.145714 490.206482,93.286232 461.768097,93.248253 
	C429.176239,93.204735 396.584564,93.002838 363.780823,92.102997 
	C362.588348,91.737114 361.396240,91.052414 360.203369,91.051186 
	C307.139160,90.996552 254.074875,90.988602 201.010757,91.077827 
	C199.675507,91.080070 198.342194,92.232658 196.166245,93.019005 
	C194.456329,93.065735 192.746414,93.112465 190.573776,92.564308 
	C188.718491,92.992981 186.863220,93.421646 184.302338,94.054611 
	C183.576920,94.133171 182.851517,94.211731 181.768982,93.728111 
	C180.848663,94.101479 179.928345,94.474846 178.314545,95.050674 
	C177.613373,95.217491 176.912201,95.384308 175.935837,94.988693 
	C175.292953,95.282669 174.650055,95.576645 173.414124,96.125809 
	C172.991806,96.196121 172.569504,96.266434 171.844635,95.819221 
	C171.231873,96.175949 170.619110,96.532684 169.344528,97.251984 
	C166.269974,98.258881 163.195419,99.265778 159.767624,99.726784 
	C158.512115,100.479240 157.256592,101.231689 155.576492,102.552986 
	C152.282166,104.344948 148.987823,106.136917 145.201050,107.948250 
	C145.201050,107.948250 144.776291,108.198181 144.125381,108.415779 
	C142.630737,109.335251 141.136093,110.254723 139.321854,111.270615 
	C139.321854,111.270615 139.154266,111.559326 138.637100,111.877945 
	C136.960480,112.993187 135.283844,114.108437 133.358643,115.327827 
	C133.358643,115.327827 133.215286,115.556046 132.729385,115.851471 
	C131.680344,116.645836 130.631302,117.440208 129.360443,118.350334 
	C129.360443,118.350334 129.232239,118.565224 128.697189,118.899925 
	C126.131737,121.266701 123.566292,123.633484 120.447342,126.198891 
	C119.963982,126.796486 119.480621,127.394073 118.384758,128.265503 
	C113.618660,134.586685 108.852570,140.907883 103.717140,146.738480 
	C98.276131,149.890335 97.180466,155.445801 95.227501,161.126266 
	C93.204163,165.722046 90.964287,170.237900 89.228928,174.939957 
	C87.939934,178.432541 86.413216,182.219574 86.624268,185.778687 
	C86.846001,189.517944 82.290321,193.510056 87.076157,197.745743 
	C87.017738,198.493057 86.959328,199.240372 86.096275,200.086273 
	C85.405167,202.179733 84.109802,204.272888 84.108818,206.366669 
	C84.017067,401.446747 84.024216,596.526855 84.024628,791.606995 
	C84.024651,802.935303 83.894508,814.266541 84.151184,825.588989 
	C84.192612,827.416138 85.951431,829.204407 87.062019,831.664368 
	C87.045593,832.108398 87.029167,832.552490 86.419731,833.375488 
	C84.014977,836.016541 84.466988,837.906494 88.043587,839.661804 
	C88.045410,840.103699 88.047226,840.545593 87.371178,841.162903 
	C87.463432,842.953125 87.442818,844.757507 87.666275,846.531189 
	C89.111626,858.003662 94.006592,868.184692 99.760696,877.992371 
	C100.380348,879.048523 102.161987,879.422974 103.752960,880.304810 
	C103.752960,880.304810 103.849556,880.690186 103.480865,881.397278 
	C104.132378,882.047180 104.783897,882.697144 105.579651,883.466553 
	C105.579651,883.466553 105.669746,883.630798 105.369850,884.390076 
	C104.759125,888.036926 106.668236,889.605042 110.000000,890.000000 
	C110.000000,890.000000 109.998909,890.001709 110.004646,890.718933 
	C110.734665,891.465637 111.464684,892.212341 112.770500,893.273071 
	C120.905746,903.248169 130.177811,911.906433 141.964020,918.697998 
	C143.632797,919.496765 145.301575,920.295532 147.175461,921.600220 
	C147.256195,921.692627 147.407227,921.787903 147.403534,921.876770 
	C147.394913,922.083862 147.311813,922.287720 146.949051,922.772888 
	C146.954803,922.952576 146.960571,923.132202 146.966324,923.311890 
	C147.140656,923.111023 147.314972,922.910095 148.053467,922.137146 
	C149.026367,922.448181 149.999268,922.759155 151.215378,923.491333 
	C151.469177,923.693298 151.729004,923.887146 152.115173,924.695557 
	C152.812363,925.373352 153.392471,926.385864 154.224915,926.676941 
	C162.267838,929.489441 170.241425,932.624146 178.478470,934.699890 
	C182.036301,935.596436 186.163666,934.232910 190.692688,933.805176 
	C191.126968,933.889954 191.561234,933.974792 192.177933,934.783875 
	C195.113129,935.522278 198.047226,936.900208 200.983658,936.905151 
	C270.939301,937.023682 340.895203,937.014465 410.850952,936.949402 
	C415.638885,936.944946 420.429688,936.003113 425.213135,936.054810 
	C434.080963,936.150513 442.942322,936.862732 451.809998,936.950562 
	C467.714203,937.108093 483.621216,937.038574 499.526794,936.985229 
	C595.923401,936.661865 692.320007,936.307495 788.716675,935.997314 
	C795.305725,935.976135 801.896484,936.197571 808.484924,936.367493 
	C815.034180,936.536377 821.585388,936.983582 828.126892,936.854492 
	C829.770569,936.822021 831.379883,935.050049 833.734558,933.909851 
	C834.480713,933.908997 835.226807,933.908203 836.136902,934.635986 
	C836.931213,935.082825 837.849426,936.052185 838.501038,935.897583 
	C847.057251,933.867676 855.589111,931.728577 864.081909,929.448425 
	C864.879517,929.234253 865.370483,927.877869 866.567017,926.684692 
	C866.694824,926.500732 866.822693,926.316711 867.958618,926.039917 
	C868.602417,926.127747 869.246277,926.215515 869.577271,926.644958 
	C869.724121,926.540161 869.870972,926.435364 869.495667,926.021973 
	C869.660461,925.669128 869.825195,925.316284 870.589539,924.973389 
	C871.075500,924.682129 871.561462,924.390869 872.744263,924.065796 
	C874.165344,923.350281 875.586487,922.634705 877.668274,921.871460 
	C878.577026,921.286438 879.485779,920.701355 881.018066,920.094116 
	C882.025452,919.437683 883.032898,918.781250 884.694153,917.980713 
	C885.590515,917.359253 886.486816,916.737793 888.050415,916.043701 
	C901.935730,906.965088 913.738403,895.841858 922.669861,880.991943 
	C923.150940,880.006653 923.632019,879.021362 924.645447,877.798706 
	C925.086426,877.195862 925.527405,876.593018 926.657288,875.894287 
	C927.754333,873.256653 928.851440,870.619019 929.976807,867.330322 
	C930.010498,866.897217 930.044128,866.464111 930.521179,865.803772 
	C930.735046,865.548706 930.928833,865.279175 931.795166,864.864075 
	C933.702332,860.228699 935.687195,855.622375 937.442505,850.930237 
	C937.744873,850.121887 937.072205,848.948853 936.854309,847.276550 
	C936.849487,846.835449 936.844727,846.394287 936.991455,846.042908 
	C936.991455,846.042908 937.167297,846.050049 937.761353,845.918701 
	C937.720886,845.217651 937.680420,844.516541 937.675171,843.181763 
M148.423645,924.487427 
	C148.423645,924.487427 148.521759,924.432678 148.423645,924.487427 
z"/>
<path fill="#141414" opacity="1.000000" stroke="none" 
	d="
M925.968384,875.990112 
	C925.527405,876.593018 925.086426,877.195862 924.004395,877.969177 
	C922.945679,879.209961 922.528076,880.280273 922.110474,881.350586 
	C913.738403,895.841858 901.935730,906.965088 887.328247,916.052185 
	C885.750793,916.748718 884.895569,917.436829 884.040283,918.124878 
	C883.032898,918.781250 882.025452,919.437683 880.329468,920.080933 
	C878.763123,920.684875 877.885315,921.302002 877.007568,921.919189 
	C875.586487,922.634705 874.165344,923.350281 872.233032,923.845337 
	C871.144531,924.071045 870.567322,924.517212 869.989990,924.963440 
	C869.825195,925.316284 869.660461,925.669128 869.720093,926.190430 
	C869.944519,926.358948 869.890076,926.303345 869.890076,926.303345 
	C869.246277,926.215515 868.602417,926.127747 867.316040,925.834045 
	C864.119934,926.702637 861.566406,927.777100 858.674438,929.001282 
	C856.913757,929.485535 855.491638,929.820190 853.917114,929.914795 
	C853.181274,930.058594 852.597778,930.442383 851.668701,930.926025 
	C850.626953,931.201660 849.930847,931.377502 849.093872,931.271606 
	C848.306335,931.275818 847.659607,931.561829 846.664246,931.943726 
	C845.603455,932.153687 844.891357,932.267883 844.002625,932.090942 
	C842.888550,932.145874 841.951050,932.491943 840.619263,932.925659 
	C839.156433,933.061218 838.087769,933.109009 836.747375,932.832275 
	C834.673584,932.340393 832.871582,932.027039 831.069580,932.026855 
	C618.914734,932.005920 406.759857,932.005188 194.605042,932.055481 
	C192.731384,932.055969 190.857895,932.756348 188.608154,933.189087 
	C187.483963,933.119873 186.735947,932.991577 185.910706,932.517700 
	C184.211777,932.156372 182.590027,932.140564 180.631668,932.164673 
	C179.859329,932.090515 179.423630,931.976318 178.929688,931.536011 
	C177.873703,931.229614 176.875961,931.249451 175.551956,931.269348 
	C174.813232,931.135315 174.400742,931.001160 173.937836,930.557495 
	C173.183258,930.337708 172.479111,930.427490 171.463440,930.455811 
	C170.764465,930.224915 170.376999,930.055420 169.942383,929.583008 
	C169.201569,929.322021 168.507889,929.364075 167.497284,929.356812 
	C166.782410,929.151489 166.384506,928.995422 165.954071,928.591187 
	C165.534195,928.430359 165.146851,928.517517 164.444946,928.536011 
	C163.749802,928.268982 163.369186,928.070496 162.953796,927.583740 
	C162.262817,927.237000 161.606613,927.178467 160.618530,927.114746 
	C159.525024,926.744507 158.763382,926.379456 157.964691,925.708374 
	C157.241730,925.360962 156.555771,925.319580 155.550537,925.218262 
	C154.486450,924.762390 153.741669,924.366455 152.966873,923.678772 
	C152.281967,923.281372 151.627060,923.175781 150.972168,923.070190 
	C149.999268,922.759155 149.026367,922.448181 147.703064,922.380493 
	C147.352661,922.623901 147.258865,922.492920 147.258881,922.492920 
	C147.311813,922.287720 147.394913,922.083862 147.403534,921.876770 
	C147.407227,921.787903 147.256195,921.692627 147.023987,920.975098 
	C145.100647,919.608032 143.328781,918.865967 141.556915,918.123901 
	C130.177811,911.906433 120.905746,903.248169 112.379059,892.819824 
	C111.324707,891.578369 110.661797,890.790039 109.998901,890.001709 
	C109.998909,890.001709 110.000000,890.000000 109.922379,889.677612 
	C108.453079,887.447083 107.061401,885.538940 105.669739,883.630798 
	C105.669746,883.630798 105.579651,883.466553 105.402161,883.169617 
	C104.766289,882.145203 104.307922,881.417664 103.849556,880.690186 
	C103.849556,880.690186 103.752960,880.304810 103.438171,879.932007 
	C102.068665,877.711975 101.013954,875.864746 100.186890,873.854370 
	C99.980980,873.131165 99.547424,872.571167 98.888138,871.733887 
	C96.643349,866.700256 94.624306,861.943909 92.894989,857.006958 
	C92.502899,855.221924 91.821068,853.617371 90.993668,851.662598 
	C90.443199,849.600098 90.038300,847.887756 89.894409,846.026489 
	C89.824913,845.256531 89.494408,844.635437 89.064026,843.674683 
	C88.834267,842.640930 88.704391,841.946838 88.882797,841.046082 
	C88.829567,839.563110 88.468056,838.286804 87.966827,836.695679 
	C87.824608,835.928406 87.822105,835.476074 88.147903,834.755005 
	C88.631485,834.018982 88.922455,833.551758 88.922783,833.084351 
	C88.956429,785.163696 88.982056,737.243103 88.895004,689.322632 
	C88.892990,688.210449 87.606636,687.100586 86.801224,685.534424 
	C86.688591,663.665588 86.671021,642.252075 86.708603,620.838623 
	C86.729561,608.896118 86.842232,596.953735 87.310684,584.926636 
	C89.259590,580.767883 90.716415,576.700256 86.789909,572.532837 
	C86.760941,563.387634 86.849716,554.697632 87.337509,545.919678 
	C88.152649,544.167908 88.932159,542.504456 88.933022,540.840576 
	C88.991646,427.257172 88.992699,313.673798 88.942146,200.090408 
	C88.941391,198.387253 88.234314,196.684402 87.814835,194.603851 
	C87.904747,193.479309 88.036690,192.732346 88.502731,191.918060 
	C88.734192,190.829056 88.631554,189.807343 88.575333,188.428955 
	C88.803085,187.376678 88.984428,186.681091 89.470352,185.933746 
	C89.687630,185.181320 89.600319,184.480682 89.597153,183.430328 
	C89.847008,182.382050 90.012733,181.683517 90.429413,180.952347 
	C90.565224,180.530899 90.450066,180.142090 90.398750,179.388275 
	C91.086464,176.968674 91.710342,174.914047 92.577843,172.816833 
	C92.942856,172.667648 93.064240,172.561066 93.185623,172.454498 
	C92.939583,172.254135 92.693535,172.053757 92.544136,171.507477 
	C93.116440,170.105194 93.592110,169.048828 94.447533,167.902008 
	C95.158234,166.639725 95.489189,165.467926 95.710129,164.286728 
	C95.600113,164.277328 95.584496,164.057053 95.964394,164.007416 
	C97.877052,160.297333 99.409813,156.636917 101.074013,152.674377 
	C102.186745,150.914078 103.168045,149.455887 104.510162,147.992188 
	C105.829376,147.466980 107.090111,147.179382 107.696442,146.389465 
	C111.269577,141.734482 114.780609,137.024307 118.093567,132.182877 
	C118.840752,131.090958 118.719002,129.404449 118.997253,127.991661 
	C119.480621,127.394073 119.963982,126.796486 121.106651,126.098022 
	C126.099007,125.372650 129.120972,123.431015 129.232239,118.565224 
	C129.232239,118.565224 129.360443,118.350334 129.845398,118.492455 
	C132.775024,118.998161 134.246826,118.450058 133.215286,115.556046 
	C133.215286,115.556046 133.358643,115.327827 133.840546,115.478081 
	C137.199265,115.775558 139.455688,115.186119 139.154266,111.559326 
	C139.154266,111.559326 139.321854,111.270615 139.831604,111.439026 
	C141.819656,110.471024 143.297974,109.334602 144.776291,108.198181 
	C144.776291,108.198181 145.201050,107.948250 145.540771,108.268211 
	C146.868896,108.448036 147.913483,108.467812 148.837158,108.143356 
	C159.628647,104.352745 170.370575,100.417854 181.201859,96.745956 
	C183.945374,95.815865 186.960861,95.242714 189.846848,95.260040 
	C199.224182,95.316315 208.598434,95.905724 217.975662,95.956802 
	C239.507782,96.074089 261.040985,95.995018 282.573730,95.995010 
	C298.461121,95.995003 314.348511,95.993431 330.235901,95.993484 
	C433.786346,95.993828 537.336853,96.037346 640.887207,95.950493 
	C657.174255,95.936829 673.460144,95.114983 689.747620,95.073280 
	C701.952148,95.042023 714.156555,95.793251 726.364258,95.958260 
	C738.617798,96.123878 750.875305,95.995132 763.131104,95.995041 
	C786.466492,95.994850 809.804993,96.219635 833.135681,95.888542 
	C843.141541,95.746544 852.475098,98.064438 861.852051,100.970535 
	C864.436218,101.771408 867.345947,101.521744 870.346436,101.787918 
	C870.586487,101.821724 871.001953,102.071846 871.007080,102.436523 
	C875.275940,107.703537 880.874268,110.226479 887.031921,111.707970 
	C887.402100,111.797035 887.908752,111.318634 888.351929,111.104294 
	C888.351929,111.104294 888.748474,111.195923 888.646240,111.709763 
	C889.747559,112.778725 890.951111,113.333847 892.154602,113.888962 
	C892.154602,113.888969 892.053162,113.945755 892.053711,114.272804 
	C892.849548,118.416718 895.741638,118.965622 898.948730,119.023628 
	C898.948730,119.023628 898.993713,118.994949 898.998535,119.382225 
	C899.237366,120.536636 899.252991,121.500481 899.739258,122.040146 
	C904.112183,126.892624 908.507935,131.728836 913.063782,136.407425 
	C913.742676,137.104675 915.288330,136.957962 916.432983,137.201660 
	C916.432983,137.201675 916.676697,137.343353 916.529419,137.827209 
	C918.847900,142.650620 921.305176,146.995163 923.830078,151.299988 
	C923.891052,151.403961 924.707031,151.065155 925.170837,150.932861 
	C925.603210,151.531921 926.035522,152.130997 926.777527,153.220612 
	C928.364929,156.151550 929.642639,158.591919 930.920349,161.032318 
	C930.953613,161.467361 930.986938,161.902420 930.770020,162.868958 
	C931.342163,164.933273 932.164429,166.466080 933.171326,168.151947 
	C933.540710,168.569702 933.762817,168.798218 934.022156,168.990524 
	C934.032532,169.434692 934.042908,169.878876 933.811218,170.814606 
	C933.993530,171.866623 934.417969,172.427094 934.968140,173.288696 
	C935.169128,174.016342 935.244263,174.442871 935.034302,175.061432 
	C935.458435,177.165588 936.167603,179.077698 936.987061,181.293793 
	C937.159973,182.021286 937.222778,182.444809 937.003784,183.048492 
	C937.109314,184.149231 937.496582,185.069778 937.998901,186.301331 
	C938.129578,187.049454 938.145203,187.486557 937.870239,188.146866 
	C938.023682,189.910980 938.467651,191.451889 939.031006,193.314850 
	C939.127380,194.088440 939.104431,194.539963 938.772217,195.275665 
	C938.312195,197.034073 938.029419,198.508286 938.029297,199.982529 
	C938.006592,408.306030 938.001648,616.629578 938.049377,824.953064 
	C938.049805,826.657288 938.775208,828.361450 939.244019,830.392212 
	C939.204956,831.146973 939.083984,831.575073 938.597412,832.081787 
	C938.231812,834.141418 938.231689,836.122498 938.244263,838.471802 
	C938.124878,839.563782 937.992859,840.287476 937.545471,841.060974 
	C937.168823,842.079712 937.107544,843.048767 937.078369,844.357178 
	C937.129456,845.147705 937.148376,845.598877 937.167297,846.050049 
	C937.167297,846.050049 936.991455,846.042908 936.568909,846.087158 
	C934.806458,851.104492 933.466492,856.077576 932.112427,861.380371 
	C931.724182,862.474182 931.350159,863.238220 930.682922,864.032654 
	C930.285828,864.719055 930.181885,865.375061 930.077881,866.031006 
	C930.044128,866.464111 930.010498,866.897217 929.688354,867.841187 
	C928.583923,869.904297 927.767944,871.456604 926.726685,873.186279 
	C926.377625,873.722656 926.253845,874.081604 926.140503,874.701721 
	C926.090149,875.305237 926.029236,875.647705 925.968384,875.990112 
M493.685425,555.859070 
	C494.110321,555.794495 494.535187,555.729919 495.639435,555.764221 
	C496.095276,555.739136 496.551086,555.714050 497.495300,555.805725 
	C497.658783,555.769775 497.822235,555.733887 498.660156,555.784180 
	C499.112915,555.800110 499.565643,555.816101 500.348907,556.467102 
	C518.919312,592.201904 537.452515,627.956116 556.087952,663.656921 
	C560.387146,671.893066 565.036804,679.946228 570.196289,688.718445 
	C596.095581,688.756592 621.994812,688.794800 648.536377,688.510742 
	C651.982178,684.890991 648.923340,682.003174 647.301941,679.146790 
	C622.434875,635.338867 597.501099,591.568726 572.597656,547.781372 
	C571.580688,545.993286 570.708313,544.122925 569.654358,542.068298 
	C571.887512,541.253662 573.431335,540.687317 574.977356,540.127014 
	C606.716858,528.623718 628.095947,506.970978 639.072632,474.178223 
	C645.164490,450.129639 645.857422,426.097076 638.845154,401.328766 
	C638.203796,399.266876 637.593201,397.194763 636.916382,395.144592 
	C628.239624,368.862335 613.830383,347.101807 588.935425,333.325256 
	C571.137085,323.475800 551.909302,319.030518 531.079224,317.033295 
	C527.736877,316.760651 524.394470,316.487976 520.282654,316.044830 
	C519.498230,316.073822 518.713745,316.102814 517.008118,316.027557 
	C509.015808,315.995026 501.023529,315.962494 492.605255,315.794220 
	C492.605255,315.794220 492.191071,315.625977 492.127716,315.220520 
	C492.127716,315.220520 492.010529,314.827209 491.344818,314.335175 
	C490.859955,314.232941 490.375153,314.041473 489.890228,314.041199 
	C447.463104,314.018799 405.035919,313.996796 362.608978,314.076874 
	C361.431488,314.079071 360.256104,315.185730 358.498657,316.329285 
	C358.003326,318.714264 357.083038,321.098083 357.076660,323.484375 
	C356.987762,356.812775 357.029358,390.141541 357.028137,423.470215 
	C357.024963,509.458221 357.004395,595.446228 357.086945,681.434143 
	C357.088776,683.338745 358.240906,685.242310 358.926178,687.104919 
	C358.926178,687.104919 358.872528,687.044067 358.945007,687.631226 
	C359.283020,687.797668 359.621033,687.964050 360.002502,688.070374 
	C360.002502,688.070374 359.929016,688.060486 360.435181,688.763245 
	C383.925934,688.779236 407.416718,688.795227 431.468109,688.698608 
	C431.909637,688.102356 432.351166,687.506104 433.127502,686.442505 
	C433.434204,685.957520 433.740906,685.472534 434.354156,684.812927 
	C434.414948,684.713562 434.550873,684.564209 434.523712,684.523376 
	C434.400726,684.338562 434.231628,684.184387 433.937775,683.264893 
	C433.988190,682.502747 434.038635,681.740601 434.385254,680.797913 
	C434.283875,680.538330 434.182526,680.278809 433.914246,679.092285 
	C433.968597,671.718750 434.022919,664.345215 434.629395,656.357361 
	C434.448395,649.914978 434.267365,643.472595 433.925232,636.101440 
	C433.977631,629.724304 434.030029,623.347168 434.600586,616.436035 
	C434.429047,614.300964 434.257507,612.165833 433.925110,609.101379 
	C433.978943,593.724487 434.032806,578.347595 434.567322,562.538513 
	C434.408417,561.369446 434.249512,560.200317 433.936218,558.354980 
	C433.980682,557.897095 434.025146,557.439148 434.479828,556.762390 
	C434.729767,556.562195 434.902466,556.309265 435.670319,555.877808 
	C436.119659,555.934143 436.569031,555.990417 437.626282,556.610474 
	C455.321838,556.699158 473.017365,556.792908 490.713013,556.845886 
	C491.137695,556.847168 491.563751,556.392395 492.519196,555.928284 
	C492.696869,555.856750 492.874573,555.785217 493.685425,555.859070 
M302.916199,569.554871 
	C302.284180,569.350647 301.652130,569.146423 300.334961,568.840637 
	C273.680908,552.270935 247.026855,535.701294 219.838715,518.799622 
	C249.692764,498.902283 278.852295,479.467804 308.455322,460.545990 
	C311.671021,461.208344 312.674835,459.376343 312.967804,456.229492 
	C313.141815,455.978363 313.381226,455.863434 314.446747,455.863281 
	C315.625061,454.034973 317.837585,452.193756 317.814972,450.380432 
	C317.660828,438.019196 317.084503,425.661407 316.452759,413.312256 
	C316.411926,412.513611 314.775940,411.796570 313.434753,411.076324 
	C313.434753,411.076324 312.998779,410.970581 312.897095,410.328186 
	C309.738861,411.531250 306.580627,412.734283 303.422394,413.937347 
	C303.672577,414.318085 303.922729,414.698822 303.831207,415.696503 
	C273.706909,434.359222 243.523834,452.927979 213.482880,471.723877 
	C198.181000,481.297913 182.901718,490.944122 168.070450,501.219116 
	C160.597427,506.396301 158.689514,514.542847 160.765747,523.402771 
	C162.869003,532.378174 170.137482,536.753113 177.157394,541.119446 
	C205.707077,558.877319 234.328995,576.519348 262.966583,594.135376 
	C276.927490,602.723267 290.938324,611.232544 305.031403,619.600769 
	C307.695923,621.182983 310.597687,623.694824 314.801910,620.838013 
	C314.859497,618.890137 314.917053,616.942322 314.754456,614.081543 
	C314.883575,608.383850 315.012695,602.686096 315.898285,596.781860 
	C316.553345,591.973389 317.332214,587.174927 317.726349,582.345215 
	C317.783661,581.642578 316.001251,580.789795 314.691071,579.537720 
	C314.113007,578.735413 313.534943,577.933105 312.968658,576.331421 
	C311.569641,575.579834 310.170654,574.828308 308.186279,574.008423 
	C307.425842,573.433716 306.665436,572.859070 305.873077,571.533081 
	C304.865997,571.054382 303.858917,570.575684 302.942780,570.057556 
	C302.942780,570.057556 302.907745,570.150269 302.916199,569.554871 
M704.254639,568.227417 
	C703.940552,568.445679 703.626404,568.664001 702.995789,568.076538 
	C697.682983,567.707153 695.838928,569.072937 694.861145,574.031921 
	C694.666016,574.060181 694.470825,574.088379 694.087524,573.428101 
	C691.145447,572.426331 689.982117,573.358032 690.646851,576.697815 
	C690.646851,576.697815 690.367065,576.792236 689.650269,576.391296 
	C685.876526,575.203796 684.621338,578.031433 684.395020,580.547546 
	C683.660889,588.711853 683.443237,596.922058 682.986938,605.112366 
	C682.886780,606.911072 683.073853,608.912598 682.350037,610.455322 
	C680.002197,615.459106 684.238953,619.701294 683.716309,624.449646 
	C683.705261,624.550171 685.198181,624.816284 686.000366,625.000854 
	C686.000366,625.000854 685.993103,625.013794 686.016663,625.746765 
	C686.955872,630.234192 689.431213,627.199097 691.107910,626.615417 
	C693.497925,625.783508 696.726685,625.638062 697.111206,621.277100 
	C726.717590,603.361877 756.411560,585.589172 785.897888,567.478516 
	C803.958191,556.385803 821.719238,544.804688 839.574280,533.379700 
	C845.625793,529.507385 847.833008,523.862671 847.226868,516.737427 
	C846.608093,509.463928 842.919800,504.563965 836.906555,500.776520 
	C791.227966,472.006042 745.621460,443.120911 699.934692,414.363434 
	C696.360901,412.113892 692.348206,410.561646 688.231201,408.533447 
	C687.226929,410.433350 686.545532,411.722321 685.097656,413.219818 
	C684.757446,413.745422 684.123901,414.269012 684.120239,414.796967 
	C684.044312,425.698700 684.000061,436.601318 684.100464,447.502380 
	C684.108093,448.336151 685.239136,449.159576 686.043640,450.679535 
	C688.393738,453.357483 690.304871,456.691284 693.165649,458.606354 
	C710.935669,470.501740 728.943848,482.040649 746.821899,493.775574 
	C758.049927,501.145538 769.236328,508.581329 780.342468,516.133118 
	C784.359985,518.864868 784.197327,519.810791 780.117126,522.261536 
	C774.739319,525.491638 769.362488,528.723389 763.709290,531.417908 
	C761.666077,532.052185 759.151550,532.146179 757.677063,533.432434 
	C754.540588,536.168518 748.884827,536.130493 747.832825,541.997681 
	C747.651611,542.016846 747.470337,542.036011 747.029907,541.306885 
	C746.051025,541.098694 744.763428,540.381775 744.140503,540.759949 
	C736.958313,545.119812 729.789062,549.515686 722.831726,554.220520 
	C721.134949,555.367981 720.221741,557.674133 718.742432,559.795654 
	C718.742432,559.795654 718.346497,559.877747 717.630005,559.431885 
	C716.381226,559.536743 714.497192,559.160706 713.991760,559.828308 
	C711.585022,563.007385 705.777405,562.466553 704.793274,567.736694 
	C704.760071,567.533386 704.726868,567.330017 704.213135,566.956055 
	C704.052917,566.941467 703.892761,566.926880 703.732544,566.912231 
	C704.036743,566.990967 704.341003,567.069641 704.254639,568.227417 
z"/>
<path fill="#0F0F0F" opacity="1.000000" stroke="none" 
	d="
M870.106323,101.754112 
	C867.345947,101.521744 864.436218,101.771408 861.852051,100.970535 
	C852.475098,98.064438 843.141541,95.746544 833.135681,95.888542 
	C809.804993,96.219635 786.466492,95.994850 763.131104,95.995041 
	C750.875305,95.995132 738.617798,96.123878 726.364258,95.958260 
	C714.156555,95.793251 701.952148,95.042023 689.747620,95.073280 
	C673.460144,95.114983 657.174255,95.936829 640.887207,95.950493 
	C537.336853,96.037346 433.786346,95.993828 330.235901,95.993484 
	C314.348511,95.993431 298.461121,95.995003 282.573730,95.995010 
	C261.040985,95.995018 239.507782,96.074089 217.975662,95.956802 
	C208.598434,95.905724 199.224182,95.316315 189.846848,95.260040 
	C186.960861,95.242714 183.945374,95.815865 181.201859,96.745956 
	C170.370575,100.417854 159.628647,104.352745 148.837158,108.143356 
	C147.913483,108.467812 146.868896,108.448036 145.786987,108.258530 
	C148.987823,106.136917 152.282166,104.344948 156.120331,102.251297 
	C157.816406,101.390633 158.968643,100.831657 160.120865,100.272675 
	C163.195419,99.265778 166.269974,98.258881 169.966553,97.104935 
	C171.108109,96.750832 171.627655,96.543793 172.147186,96.336746 
	C172.569504,96.266434 172.991806,96.196121 173.995422,96.045197 
	C175.121490,95.826767 175.666260,95.688942 176.211029,95.551117 
	C176.912201,95.384308 177.613373,95.217491 178.985931,95.005737 
	C180.480240,94.737297 181.303162,94.513802 182.126099,94.290298 
	C182.851517,94.211731 183.576920,94.133171 185.037109,94.012222 
	C187.526764,93.699623 189.281631,93.429413 191.036499,93.159203 
	C192.746414,93.112465 194.456329,93.065735 197.051727,92.995117 
	C225.199341,92.973007 252.461472,92.989395 279.723572,92.972527 
	C307.813324,92.955139 335.903076,92.905350 363.992828,92.869743 
	C396.584564,93.002838 429.176239,93.204735 461.768097,93.248253 
	C490.206482,93.286232 518.645081,93.145714 548.008057,93.064514 
	C605.846130,93.022270 662.759705,93.010529 719.673279,92.972984 
	C757.446106,92.948059 795.218933,92.886208 832.991760,92.840889 
	C834.693481,93.006401 836.395203,93.171913 838.836792,93.483963 
	C841.048828,93.712349 842.520996,93.794205 843.993103,93.876053 
	C844.411438,94.001335 844.829834,94.126610 845.814575,94.471512 
	C847.251526,94.749954 848.122131,94.808769 848.992676,94.867577 
	C849.405457,95.007011 849.818176,95.146446 850.764404,95.482285 
	C851.862427,95.729271 852.426880,95.779854 852.991394,95.830429 
	C853.416565,95.946404 853.841797,96.062370 854.782959,96.402588 
	C855.863342,96.700653 856.427734,96.774475 856.992126,96.848297 
	C858.392700,97.275314 859.793213,97.702339 861.784668,98.413559 
	C863.915588,99.108665 865.455627,99.519569 866.995728,99.930481 
	C867.766052,100.304932 868.536377,100.679382 869.681580,101.233704 
	C870.056458,101.413574 870.106323,101.754112 870.106323,101.754112 
z"/>
<path fill="#DAD9DA" opacity="1.000000" stroke="none" 
	d="
M86.913574,585.011292 
	C86.842232,596.953735 86.729561,608.896118 86.708603,620.838623 
	C86.671021,642.252075 86.688591,663.665588 86.708168,685.995850 
	C86.731598,695.555786 86.717728,704.199097 86.730438,712.842346 
	C86.788338,752.231750 86.853699,791.621216 86.916382,831.010620 
	C85.951431,829.204407 84.192612,827.416138 84.151184,825.588989 
	C83.894508,814.266541 84.024651,802.935303 84.024628,791.606995 
	C84.024216,596.526855 84.017067,401.446747 84.108818,206.366669 
	C84.109802,204.272888 85.405167,202.179733 86.574242,200.501099 
	C86.992073,288.483887 86.922340,376.051880 86.877480,463.619843 
	C86.863411,491.082428 86.916267,518.545105 86.938492,546.007690 
	C86.849716,554.697632 86.760941,563.387634 86.694397,572.986145 
	C86.782280,577.600220 86.847923,581.305786 86.913574,585.011292 
z"/>
<path fill="#E5E4E4" opacity="1.000000" stroke="none" 
	d="
M833.005005,934.077393 
	C831.379883,935.050049 829.770569,936.822021 828.126892,936.854492 
	C821.585388,936.983582 815.034180,936.536377 808.484924,936.367493 
	C801.896484,936.197571 795.305725,935.976135 788.716675,935.997314 
	C692.320007,936.307495 595.923401,936.661865 499.526794,936.985229 
	C483.621216,937.038574 467.714203,937.108093 451.809998,936.950562 
	C442.942322,936.862732 434.080963,936.150513 425.213135,936.054810 
	C420.429688,936.003113 415.638885,936.944946 410.850952,936.949402 
	C340.895203,937.014465 270.939301,937.023682 200.983658,936.905151 
	C198.047226,936.900208 195.113129,935.522278 192.551712,934.355957 
	C198.088364,933.991150 203.251251,934.109131 208.414124,934.109314 
	C362.482208,934.115234 516.550293,934.111450 670.618408,934.104431 
	C724.747253,934.101929 778.876160,934.086792 833.005005,934.077393 
z"/>
<path fill="#050505" opacity="1.000000" stroke="none" 
	d="
M833.369751,933.993652 
	C778.876160,934.086792 724.747253,934.101929 670.618408,934.104431 
	C516.550293,934.111450 362.482208,934.115234 208.414124,934.109314 
	C203.251251,934.109131 198.088364,933.991150 192.460510,933.993835 
	C191.561234,933.974792 191.126968,933.889954 190.205170,933.697754 
	C189.421951,933.518494 189.177505,933.364990 188.984314,933.129883 
	C190.857895,932.756348 192.731384,932.055969 194.605042,932.055481 
	C406.759857,932.005188 618.914734,932.005920 831.069580,932.026855 
	C832.871582,932.027039 834.673584,932.340393 836.582642,932.974976 
	C836.388794,933.501831 836.149902,933.656799 835.972961,933.907349 
	C835.226807,933.908203 834.480713,933.908997 833.369751,933.993652 
z"/>
<path fill="#050505" opacity="1.000000" stroke="none" 
	d="
M939.162109,830.065613 
	C938.775208,828.361450 938.049805,826.657288 938.049377,824.953064 
	C938.001648,616.629578 938.006592,408.306030 938.029297,199.982529 
	C938.029419,198.508286 938.312195,197.034073 938.906128,195.455505 
	C939.379272,195.673157 939.531067,195.920502 939.804504,196.093201 
	C939.847473,197.463394 939.890381,198.833603 939.970459,201.069855 
	C940.007202,369.652252 939.998596,537.368591 940.012329,705.084961 
	C940.015625,745.054260 940.093994,785.023499 940.137939,824.992798 
	C939.964355,826.351135 939.790771,827.709534 939.533691,829.505371 
	C939.450134,829.942932 939.162109,830.065613 939.162109,830.065613 
z"/>
<path fill="#FBFAFA" opacity="1.000000" stroke="none" 
	d="
M940.521240,824.886597 
	C940.093994,785.023499 940.015625,745.054260 940.012329,705.084961 
	C939.998596,537.368591 940.007202,369.652252 940.071045,201.471466 
	C940.755493,202.840271 941.916565,204.672699 941.919373,206.506912 
	C942.014954,268.642059 942.001831,330.777405 942.001648,392.912689 
	C942.001282,534.841064 942.004089,676.769409 941.952942,818.697754 
	C941.952209,820.725464 941.269165,822.752869 940.521240,824.886597 
z"/>
<path fill="#050505" opacity="1.000000" stroke="none" 
	d="
M87.337509,545.919678 
	C86.916267,518.545105 86.863411,491.082428 86.877480,463.619843 
	C86.922340,376.051880 86.992073,288.483887 86.976562,200.451813 
	C86.959328,199.240372 87.017738,198.493057 87.163895,197.126190 
	C87.453377,195.998245 87.655121,195.489822 87.856873,194.981415 
	C88.234314,196.684402 88.941391,198.387253 88.942146,200.090408 
	C88.992699,313.673798 88.991646,427.257172 88.933022,540.840576 
	C88.932159,542.504456 88.152649,544.167908 87.337509,545.919678 
z"/>
<path fill="#FBFAFA" opacity="1.000000" stroke="none" 
	d="
M832.882935,92.459702 
	C795.218933,92.886208 757.446106,92.948059 719.673279,92.972984 
	C662.759705,93.010529 605.846130,93.022270 548.469177,92.972984 
	C549.829041,92.268402 551.650024,91.092209 553.475891,91.084641 
	C581.612061,90.968102 609.748779,91.003906 637.885437,91.003593 
	C700.984741,91.002876 764.084106,90.992516 827.183350,91.046013 
	C829.047241,91.047600 830.910522,91.719269 832.882935,92.459702 
z"/>
<path fill="#FBFAFA" opacity="1.000000" stroke="none" 
	d="
M363.886841,92.486374 
	C335.903076,92.905350 307.813324,92.955139 279.723572,92.972527 
	C252.461472,92.989395 225.199341,92.973007 197.472595,92.909988 
	C198.342194,92.232658 199.675507,91.080070 201.010757,91.077827 
	C254.074875,90.988602 307.139160,90.996552 360.203369,91.051186 
	C361.396240,91.052414 362.588348,91.737114 363.886841,92.486374 
z"/>
<path fill="#050505" opacity="1.000000" stroke="none" 
	d="
M86.989197,831.337524 
	C86.853699,791.621216 86.788338,752.231750 86.730438,712.842346 
	C86.717728,704.199097 86.731598,695.555786 86.826294,686.451111 
	C87.606636,687.100586 88.892990,688.210449 88.895004,689.322632 
	C88.982056,737.243103 88.956429,785.163696 88.922783,833.084351 
	C88.922455,833.551758 88.631485,834.018982 87.990814,834.526794 
	C87.341194,834.043701 87.176971,833.520142 87.012749,832.996521 
	C87.029167,832.552490 87.045593,832.108398 86.989197,831.337524 
z"/>
<path fill="#DAD9DA" opacity="1.000000" stroke="none" 
	d="
M92.605255,857.187561 
	C94.624306,861.943909 96.643349,866.700256 98.874619,872.041626 
	C99.377640,873.090271 99.668442,873.553894 99.959244,874.017578 
	C101.013954,875.864746 102.068665,877.711975 103.264008,879.836426 
	C102.161987,879.422974 100.380348,879.048523 99.760696,877.992371 
	C94.006592,868.184692 89.111626,858.003662 87.666275,846.531189 
	C87.442818,844.757507 87.463432,842.953125 87.843231,841.138062 
	C88.315285,841.113159 88.574509,841.252747 88.574509,841.252747 
	C88.704391,841.946838 88.834267,842.640930 89.022171,843.961914 
	C89.264595,845.117676 89.448997,845.646545 89.633400,846.175476 
	C90.038300,847.887756 90.443199,849.600098 90.969528,852.007568 
	C91.595726,854.197632 92.100487,855.692627 92.605255,857.187561 
z"/>
<path fill="#E5E4E4" opacity="1.000000" stroke="none" 
	d="
M188.608154,933.189026 
	C189.177505,933.364990 189.421951,933.518494 189.874985,933.743225 
	C186.163666,934.232910 182.036301,935.596436 178.478470,934.699890 
	C170.241425,932.624146 162.267838,929.489441 154.224915,926.676941 
	C153.392471,926.385864 152.812363,925.373352 152.304047,924.344116 
	C152.660889,923.985229 152.828888,923.977905 152.996887,923.970581 
	C153.741669,924.366455 154.486450,924.762390 155.729980,925.458984 
	C156.819702,925.844543 157.410706,925.929504 158.001724,926.014404 
	C158.763382,926.379456 159.525024,926.744507 160.796143,927.344849 
	C161.866608,927.677429 162.427597,927.774719 162.988586,927.872070 
	C163.369186,928.070496 163.749802,928.268982 164.628693,928.654053 
	C165.126999,928.840759 165.556915,928.918152 165.556915,928.918152 
	C165.556915,928.918152 165.986572,928.839355 165.986572,928.839355 
	C166.384506,928.995422 166.782410,929.151489 167.721741,929.541931 
	C168.838623,929.812866 169.414078,929.849426 169.989532,929.885986 
	C170.376999,930.055420 170.764465,930.224915 171.704346,930.618530 
	C172.833923,930.850769 173.411102,930.858887 173.988266,930.867065 
	C174.400742,931.001160 174.813232,931.135315 175.800385,931.486938 
	C177.246002,931.757019 178.116959,931.809570 178.987915,931.862183 
	C179.423630,931.976318 179.859329,932.090515 180.937958,932.372620 
	C183.049896,932.648132 184.518906,932.755676 185.987915,932.863281 
	C186.735947,932.991577 187.483963,933.119873 188.608154,933.189026 
z"/>
<path fill="#DAD9DA" opacity="1.000000" stroke="none" 
	d="
M87.814835,194.603851 
	C87.655121,195.489822 87.453377,195.998245 87.122368,196.752792 
	C82.290321,193.510056 86.846001,189.517944 86.624268,185.778687 
	C86.413216,182.219574 87.939934,178.432541 89.228928,174.939957 
	C90.964287,170.237900 93.204163,165.722046 95.639557,161.086075 
	C96.051613,161.045883 96.214455,161.198105 96.187134,161.570160 
	C95.968048,162.647171 95.776276,163.352112 95.584503,164.057053 
	C95.584496,164.057053 95.600113,164.277328 95.447426,164.530487 
	C94.885757,165.853241 94.476768,166.922867 94.067780,167.992477 
	C93.592110,169.048828 93.116440,170.105194 92.473320,171.754227 
	C92.315323,172.517746 92.324776,172.688583 92.334213,172.859436 
	C91.710342,174.914047 91.086464,176.968674 90.299957,179.580017 
	C90.049248,180.424438 90.062958,180.707184 90.178452,180.984970 
	C90.012733,181.683517 89.847008,182.382050 89.440468,183.673401 
	C89.188362,184.839325 89.177071,185.412415 89.165779,185.985519 
	C88.984428,186.681091 88.803085,187.376678 88.415474,188.717133 
	C88.195679,190.236481 88.182152,191.110916 88.168625,191.985367 
	C88.036690,192.732346 87.904747,193.479309 87.814835,194.603851 
z"/>
<path fill="#E5E4E4" opacity="1.000000" stroke="none" 
	d="
M836.054932,934.271667 
	C836.149902,933.656799 836.388794,933.501831 836.854492,933.299622 
	C838.087769,933.109009 839.156433,933.061218 840.945251,932.978882 
	C842.503418,932.756958 843.341309,932.569580 844.179260,932.382080 
	C844.891357,932.267883 845.603455,932.153687 846.949341,931.995605 
	C848.133667,931.818970 848.684204,931.686218 849.234741,931.553406 
	C849.930847,931.377502 850.626953,931.201660 851.955505,930.966614 
	C853.081787,930.656494 853.575684,930.405640 854.069519,930.154785 
	C855.491638,929.820190 856.913757,929.485535 859.040771,929.017456 
	C861.831726,928.273254 863.917786,927.662476 866.003784,927.051758 
	C865.370483,927.877869 864.879517,929.234253 864.081909,929.448425 
	C855.589111,931.728577 847.057251,933.867676 838.501038,935.897583 
	C837.849426,936.052185 836.931213,935.082825 836.054932,934.271667 
z"/>
<path fill="#0F0F0F" opacity="1.000000" stroke="none" 
	d="
M916.267212,136.932648 
	C915.288330,136.957962 913.742676,137.104675 913.063782,136.407425 
	C908.507935,131.728836 904.112183,126.892624 899.739258,122.040146 
	C899.252991,121.500481 899.237366,120.536636 898.991150,119.407814 
	C904.686401,124.918633 910.393982,130.791138 916.267212,136.932648 
z"/>
<path fill="#0F0F0F" opacity="1.000000" stroke="none" 
	d="
M118.691010,128.128586 
	C118.719002,129.404449 118.840752,131.090958 118.093567,132.182877 
	C114.780609,137.024307 111.269577,141.734482 107.696442,146.389465 
	C107.090111,147.179382 105.829376,147.466980 104.485870,147.800720 
	C104.100754,147.614792 104.086472,147.229065 104.086472,147.229065 
	C108.852570,140.907883 113.618660,134.586685 118.691010,128.128586 
z"/>
<path fill="#0F0F0F" opacity="1.000000" stroke="none" 
	d="
M888.117188,110.895164 
	C887.908752,111.318634 887.402100,111.797035 887.031921,111.707970 
	C880.874268,110.226479 875.275940,107.703537 871.254272,102.393822 
	C871.663269,101.973946 871.830017,101.961449 871.996826,101.948944 
	C877.292053,104.861305 882.587219,107.773674 888.117188,110.895164 
z"/>
<path fill="#0F0F0F" opacity="1.000000" stroke="none" 
	d="
M925.090088,150.585327 
	C924.707031,151.065155 923.891052,151.403961 923.830078,151.299988 
	C921.305176,146.995163 918.847900,142.650620 916.584473,137.956970 
	C919.527588,141.814529 922.268433,146.026169 925.090088,150.585327 
z"/>
<path fill="#DAD9DA" opacity="1.000000" stroke="none" 
	d="
M103.901810,146.983765 
	C104.086472,147.229065 104.100754,147.614792 104.125046,147.806244 
	C103.168045,149.455887 102.186745,150.914078 100.751526,152.823822 
	C98.936562,155.916290 97.575508,158.557205 96.214455,161.198105 
	C96.214455,161.198105 96.051613,161.045883 95.969780,160.969131 
	C97.180466,155.445801 98.276131,149.890335 103.901810,146.983765 
z"/>
<path fill="#FBFAFA" opacity="1.000000" stroke="none" 
	d="
M930.976074,864.002258 
	C931.350159,863.238220 931.724182,862.474182 932.405334,861.160400 
	C934.091614,856.388611 935.470764,852.166443 936.849915,847.944275 
	C937.072205,848.948853 937.744873,850.121887 937.442505,850.930237 
	C935.687195,855.622375 933.702332,860.228699 931.401978,864.683350 
	C930.997925,864.335815 930.986938,864.169006 930.976074,864.002258 
z"/>
<path fill="#0F0F0F" opacity="1.000000" stroke="none" 
	d="
M128.964722,118.732574 
	C129.120972,123.431015 126.099007,125.372650 121.383408,125.998703 
	C123.566292,123.633484 126.131737,121.266701 128.964722,118.732574 
z"/>
<path fill="#050505" opacity="1.000000" stroke="none" 
	d="
M936.852112,847.610413 
	C935.470764,852.166443 934.091614,856.388611 932.419434,860.830688 
	C933.466492,856.077576 934.806458,851.104492 936.493164,846.042236 
	C936.844727,846.394287 936.849487,846.835449 936.852112,847.610413 
z"/>
<path fill="#DAD9DA" opacity="1.000000" stroke="none" 
	d="
M86.716240,833.186035 
	C87.176971,833.520142 87.341194,834.043701 87.662514,834.795532 
	C87.822105,835.476074 87.824608,835.928406 87.933800,837.030701 
	C87.994240,838.124451 87.947983,838.568359 87.901733,839.012207 
	C84.466988,837.906494 84.014977,836.016541 86.716240,833.186035 
z"/>
<path fill="#0F0F0F" opacity="1.000000" stroke="none" 
	d="
M898.787842,118.734474 
	C895.741638,118.965622 892.849548,118.416718 892.080566,114.221237 
	C894.280151,115.376846 896.453552,116.911087 898.787842,118.734474 
z"/>
<path fill="#FBFAFA" opacity="1.000000" stroke="none" 
	d="
M926.312805,875.942200 
	C926.029236,875.647705 926.090149,875.305237 926.398315,874.547852 
	C926.747803,873.758179 926.849854,873.383545 926.951965,873.008850 
	C927.767944,871.456604 928.583923,869.904297 929.674194,868.166748 
	C928.851440,870.619019 927.754333,873.256653 926.312805,875.942200 
z"/>
<path fill="#FBFAFA" opacity="1.000000" stroke="none" 
	d="
M931.175842,160.834305 
	C929.642639,158.591919 928.364929,156.151550 927.033752,153.358673 
	C928.463989,155.549561 929.947632,158.092926 931.175842,160.834305 
z"/>
<path fill="#FBFAFA" opacity="1.000000" stroke="none" 
	d="
M938.160889,187.923676 
	C938.145203,187.486557 938.129578,187.049454 938.050293,185.971359 
	C937.752991,184.509689 937.519287,183.689011 937.285522,182.868332 
	C937.222778,182.444809 937.159973,182.021286 937.050293,181.048004 
	C937.045471,180.334351 937.087585,180.170471 937.129639,180.006592 
	C937.881836,182.549515 938.634033,185.092453 938.927734,187.831543 
	C938.469177,188.027695 938.160889,187.923676 938.160889,187.923676 
z"/>
<path fill="#DAD9DA" opacity="1.000000" stroke="none" 
	d="
M105.519791,884.010437 
	C107.061401,885.538940 108.453079,887.447083 109.921585,889.678040 
	C106.668236,889.605042 104.759125,888.036926 105.519791,884.010437 
z"/>
<path fill="#0F0F0F" opacity="1.000000" stroke="none" 
	d="
M138.895691,111.718636 
	C139.455688,115.186119 137.199265,115.775558 133.964844,115.426010 
	C135.283844,114.108437 136.960480,112.993187 138.895691,111.718636 
z"/>
<path fill="#050505" opacity="1.000000" stroke="none" 
	d="
M866.285400,926.868164 
	C863.917786,927.662476 861.831726,928.273254 859.379333,928.867798 
	C861.566406,927.777100 864.119934,926.702637 866.812012,925.880371 
	C866.822693,926.316711 866.694824,926.500732 866.285400,926.868164 
z"/>
<path fill="#050505" opacity="1.000000" stroke="none" 
	d="
M938.231628,838.103516 
	C938.231689,836.122498 938.231812,834.141418 938.642334,832.479675 
	C939.068848,833.864075 939.084778,834.929199 939.100708,835.994324 
	C938.987915,836.421509 938.875122,836.848633 938.654480,837.652100 
	C938.546631,838.028381 938.231628,838.103516 938.231628,838.103516 
z"/>
<path fill="#FBFAFA" opacity="1.000000" stroke="none" 
	d="
M939.461853,835.908875 
	C939.084778,834.929199 939.068848,833.864075 939.007935,832.401062 
	C939.083984,831.575073 939.204956,831.146973 939.244019,830.392212 
	C939.162109,830.065613 939.450134,829.942932 939.603394,829.911133 
	C939.778809,831.860718 939.800903,833.842102 939.461853,835.908875 
z"/>
<path fill="#050505" opacity="1.000000" stroke="none" 
	d="
M937.012939,179.705505 
	C937.087585,180.170471 937.045471,180.334351 936.940063,180.744019 
	C936.167603,179.077698 935.458435,177.165588 935.259766,175.272644 
	C936.073853,176.240570 936.377380,177.189331 936.680908,178.138092 
	C936.752686,178.560196 936.824524,178.982300 937.012939,179.705505 
z"/>
<path fill="#FBFAFA" opacity="1.000000" stroke="none" 
	d="
M936.967773,177.942703 
	C936.377380,177.189331 936.073853,176.240570 935.544922,175.080612 
	C935.244263,174.442871 935.169128,174.016342 935.019287,173.043274 
	C934.969360,172.331467 934.994263,172.166214 935.019165,172.000961 
	C935.764343,173.916412 936.509521,175.831863 936.967773,177.942703 
z"/>
<path fill="#FBFAFA" opacity="1.000000" stroke="none" 
	d="
M190.805145,92.861755 
	C189.281631,93.429413 187.526764,93.699623 185.389923,93.910072 
	C186.863220,93.421646 188.718491,92.992981 190.805145,92.861755 
z"/>
<path fill="#050505" opacity="1.000000" stroke="none" 
	d="
M937.870239,188.146866 
	C938.160889,187.923676 938.469177,188.027695 938.628784,188.059006 
	C938.838440,188.825134 938.888367,189.559937 938.978455,190.979721 
	C938.982971,192.107391 938.947327,192.550095 938.911621,192.992798 
	C938.467651,191.451889 938.023682,189.910980 937.870239,188.146866 
z"/>
<path fill="#FBFAFA" opacity="1.000000" stroke="none" 
	d="
M939.031006,193.314850 
	C938.947327,192.550095 938.982971,192.107391 939.078979,191.335999 
	C939.555542,192.554352 939.971802,194.101410 940.096252,195.870819 
	C939.531067,195.920502 939.379272,195.673157 939.215332,195.171326 
	C939.104431,194.539963 939.127380,194.088440 939.031006,193.314850 
z"/>
<path fill="#0F0F0F" opacity="1.000000" stroke="none" 
	d="
M144.450836,108.306976 
	C143.297974,109.334602 141.819656,110.471024 139.991394,111.390823 
	C141.136093,110.254723 142.630737,109.335251 144.450836,108.306976 
z"/>
<path fill="#FBFAFA" opacity="1.000000" stroke="none" 
	d="
M843.914429,93.525085 
	C842.520996,93.794205 841.048828,93.712349 839.262085,93.437073 
	C840.576904,93.220474 842.206360,93.197296 843.914429,93.525085 
z"/>
<path fill="#0F0F0F" opacity="1.000000" stroke="none" 
	d="
M132.972336,115.703758 
	C134.246826,118.450058 132.775024,118.998161 129.956299,118.434570 
	C130.631302,117.440208 131.680344,116.645836 132.972336,115.703758 
z"/>
<path fill="#050505" opacity="1.000000" stroke="none" 
	d="
M932.986816,167.998871 
	C932.164429,166.466080 931.342163,164.933273 930.768616,163.196228 
	C931.310242,163.151031 931.547241,163.370407 931.894043,164.177704 
	C932.368652,165.803162 932.677734,166.901016 932.986816,167.998871 
z"/>
<path fill="#FBFAFA" opacity="1.000000" stroke="none" 
	d="
M933.171387,168.151947 
	C932.677734,166.901016 932.368652,165.803162 932.062317,164.354584 
	C932.877075,165.526901 933.689148,167.049896 934.261719,168.781708 
	C933.762817,168.798218 933.540710,168.569702 933.171387,168.151947 
z"/>
<path fill="#050505" opacity="1.000000" stroke="none" 
	d="
M141.760468,918.410950 
	C143.328781,918.865967 145.100647,919.608032 146.921417,920.722168 
	C145.301575,920.295532 143.632797,919.496765 141.760468,918.410950 
z"/>
<path fill="#FBFAFA" opacity="1.000000" stroke="none" 
	d="
M866.937378,99.597275 
	C865.455627,99.519569 863.915588,99.108665 862.153442,98.434738 
	C863.580627,98.535835 865.229858,98.899956 866.937378,99.597275 
z"/>
<path fill="#FBFAFA" opacity="1.000000" stroke="none" 
	d="
M159.944244,99.999733 
	C158.968643,100.831657 157.816406,101.390633 156.332642,101.966873 
	C157.256592,101.231689 158.512115,100.479240 159.944244,99.999733 
z"/>
<path fill="#050505" opacity="1.000000" stroke="none" 
	d="
M87.972656,839.337036 
	C87.947983,838.568359 87.994240,838.124451 88.073517,837.345581 
	C88.468056,838.286804 88.829567,839.563110 88.882797,841.046082 
	C88.574509,841.252747 88.315285,841.113159 88.182167,841.050293 
	C88.047226,840.545593 88.045410,840.103699 87.972656,839.337036 
z"/>
<path fill="#FBFAFA" opacity="1.000000" stroke="none" 
	d="
M938.244263,838.471802 
	C938.231628,838.103516 938.546631,838.028381 938.701965,837.982544 
	C938.834900,839.242676 938.812500,840.548645 938.394958,841.677246 
	C937.953491,841.336914 937.907104,841.174072 937.860840,841.011230 
	C937.992859,840.287476 938.124878,839.563782 938.244263,838.471802 
z"/>
<path fill="#0F0F0F" opacity="1.000000" stroke="none" 
	d="
M892.033569,113.619659 
	C890.951111,113.333847 889.747559,112.778725 888.745789,111.887276 
	C889.935852,112.150749 890.924194,112.750549 892.033569,113.619659 
z"/>
<path fill="#FBFAFA" opacity="1.000000" stroke="none" 
	d="
M181.947540,94.009201 
	C181.303162,94.513802 180.480240,94.737297 179.332672,94.904503 
	C179.928345,94.474846 180.848663,94.101479 181.947540,94.009201 
z"/>
<path fill="#DAD9DA" opacity="1.000000" stroke="none" 
	d="
M103.665207,881.043701 
	C104.307922,881.417664 104.766289,882.145203 105.330040,883.109863 
	C104.783897,882.697144 104.132378,882.047180 103.665207,881.043701 
z"/>
<path fill="#FBFAFA" opacity="1.000000" stroke="none" 
	d="
M848.932617,94.544006 
	C848.122131,94.808769 847.251526,94.749954 846.142944,94.460938 
	C846.894165,94.227303 847.883362,94.223877 848.932617,94.544006 
z"/>
<path fill="#050505" opacity="1.000000" stroke="none" 
	d="
M937.545410,841.060974 
	C937.907104,841.174072 937.953491,841.336914 938.058411,841.746887 
	C937.969727,842.389954 937.822449,842.785828 937.502441,843.529663 
	C937.329773,843.877563 937.046265,844.017761 937.046265,844.017761 
	C937.107544,843.048767 937.168823,842.079712 937.545410,841.060974 
z"/>
<path fill="#050505" opacity="1.000000" stroke="none" 
	d="
M884.367188,918.052795 
	C884.895569,917.436829 885.750793,916.748718 886.994629,916.088501 
	C886.486816,916.737793 885.590515,917.359253 884.367188,918.052795 
z"/>
<path fill="#DAD9DA" opacity="1.000000" stroke="none" 
	d="
M110.001770,890.360352 
	C110.661797,890.790039 111.324707,891.578369 112.091156,892.662842 
	C111.464684,892.212341 110.734665,891.465637 110.001770,890.360352 
z"/>
<path fill="#050505" opacity="1.000000" stroke="none" 
	d="
M877.337891,921.895264 
	C877.885315,921.302002 878.763123,920.684875 880.017700,920.092041 
	C879.485779,920.701355 878.577026,921.286438 877.337891,921.895264 
z"/>
<path fill="#050505" opacity="1.000000" stroke="none" 
	d="
M922.390198,881.171265 
	C922.528076,880.280273 922.945679,879.209961 923.738220,878.087891 
	C923.632019,879.021362 923.150940,880.006653 922.390198,881.171265 
z"/>
<path fill="#050505" opacity="1.000000" stroke="none" 
	d="
M934.844360,171.839722 
	C934.994263,172.166214 934.969360,172.331467 934.893433,172.742142 
	C934.417969,172.427094 933.993530,171.866623 933.795288,171.148087 
	C934.288330,171.171616 934.504333,171.401093 934.844360,171.839722 
z"/>
<path fill="#050505" opacity="1.000000" stroke="none" 
	d="
M930.682861,864.032654 
	C930.986938,864.169006 930.997925,864.335815 931.055664,864.749023 
	C930.928833,865.279175 930.735046,865.548706 930.299561,865.917358 
	C930.181885,865.375061 930.285828,864.719055 930.682861,864.032654 
z"/>
<path fill="#FBFAFA" opacity="1.000000" stroke="none" 
	d="
M176.073425,95.269905 
	C175.666260,95.688942 175.121490,95.826767 174.291946,95.917603 
	C174.650055,95.576645 175.292953,95.282669 176.073425,95.269905 
z"/>
<path fill="#050505" opacity="1.000000" stroke="none" 
	d="
M152.966858,923.678772 
	C152.828888,923.977905 152.660889,923.985229 152.243896,924.032776 
	C151.729004,923.887146 151.469177,923.693298 151.093781,923.280762 
	C151.627060,923.175781 152.281967,923.281372 152.966858,923.678772 
z"/>
<path fill="#050505" opacity="1.000000" stroke="none" 
	d="
M870.289795,924.968384 
	C870.567322,924.517212 871.144531,924.071045 871.884644,923.862244 
	C871.561462,924.390869 871.075500,924.682129 870.289795,924.968384 
z"/>
<path fill="#FBFAFA" opacity="1.000000" stroke="none" 
	d="
M852.943481,95.539291 
	C852.426880,95.779854 851.862427,95.729271 851.091675,95.476730 
	C851.555481,95.265900 852.225586,95.257027 852.943481,95.539291 
z"/>
<path fill="#FBFAFA" opacity="1.000000" stroke="none" 
	d="
M871.962402,101.658821 
	C871.830017,101.961449 871.663269,101.973946 871.249207,102.029144 
	C871.001953,102.071846 870.586487,101.821724 870.346436,101.787918 
	C870.106323,101.754112 870.056458,101.413574 870.011353,101.247513 
	C870.620117,101.177200 871.274048,101.272949 871.962402,101.658821 
z"/>
<path fill="#FBFAFA" opacity="1.000000" stroke="none" 
	d="
M171.995911,96.077988 
	C171.627655,96.543793 171.108109,96.750832 170.297455,96.923645 
	C170.619110,96.532684 171.231873,96.175949 171.995911,96.077988 
z"/>
<path fill="#FBFAFA" opacity="1.000000" stroke="none" 
	d="
M856.949585,96.560974 
	C856.427734,96.774475 855.863342,96.700653 855.113892,96.402061 
	C855.588257,96.209404 856.247620,96.241531 856.949585,96.560974 
z"/>
<path fill="#FBFAFA" opacity="1.000000" stroke="none" 
	d="
M937.078369,844.357178 
	C937.046265,844.017761 937.329773,843.877563 937.484863,843.846558 
	C937.680420,844.516541 937.720886,845.217651 937.464355,845.984375 
	C937.148376,845.598877 937.129456,845.147705 937.078369,844.357178 
z"/>
<path fill="#E5E4E4" opacity="1.000000" stroke="none" 
	d="
M148.472702,924.460083 
	C148.521759,924.432678 148.423645,924.487427 148.472702,924.460083 
z"/>
<path fill="#E5E4E4" opacity="1.000000" stroke="none" 
	d="
M147.420990,922.666565 
	C147.314972,922.910095 147.140656,923.111023 146.966324,923.311890 
	C146.960571,923.132202 146.954803,922.952576 147.103958,922.632935 
	C147.258865,922.492920 147.352661,922.623901 147.420990,922.666565 
z"/>
<path fill="#E5E4E4" opacity="1.000000" stroke="none" 
	d="
M869.733643,926.474121 
	C869.890076,926.303345 869.944519,926.358948 869.981201,926.344788 
	C869.870972,926.435364 869.724121,926.540161 869.733643,926.474121 
z"/>
<path fill="#D03437" opacity="1.000000" stroke="none" 
	d="
M432.792694,686.909851 
	C432.351166,687.506104 431.909637,688.102356 430.876953,688.492859 
	C406.833557,688.211609 383.381287,688.136047 359.929016,688.060486 
	C359.929016,688.060486 360.002502,688.070374 359.879150,687.849915 
	C359.461395,687.434326 359.166962,687.239197 358.872528,687.044067 
	C358.872528,687.044067 358.926178,687.104919 358.942932,686.646057 
	C358.973267,563.114868 358.986816,440.042511 359.468872,316.983643 
	C403.958038,317.000885 447.978760,317.004669 491.997162,317.476166 
	C491.970917,338.292694 491.946960,358.641479 491.459229,378.997498 
	C473.626160,379.007355 456.256439,378.958252 438.888184,379.096558 
	C437.240143,379.109680 435.601440,380.296539 433.572632,381.062378 
	C432.796051,382.525970 432.066406,383.865082 432.063934,385.205536 
	C432.000671,419.427460 431.993713,453.649567 432.086212,487.871368 
	C432.089874,489.223389 433.168060,490.572571 433.849731,492.148346 
	C433.953918,492.373596 434.033783,492.863007 434.295990,493.191040 
	C436.359802,493.681000 438.160950,493.977539 439.963104,493.984009 
	C457.277100,494.045990 474.591248,494.059082 491.924622,494.548950 
	C491.926544,514.675781 491.909210,534.339722 491.430054,554.009277 
	C473.607666,554.014282 456.246765,553.961914 438.887268,554.097351 
	C437.240082,554.110229 435.602081,555.299927 433.573151,556.064453 
	C432.794922,558.028442 432.064575,559.870728 432.061646,561.714172 
	C431.998260,601.684753 432.006134,641.655396 432.050873,681.625977 
	C432.052826,683.387573 432.534454,685.148560 432.792694,686.909851 
z"/>
<path fill="#21AB42" opacity="1.000000" stroke="none" 
	d="
M531.898804,317.175903 
	C551.909302,319.030518 571.137085,323.475800 588.935425,333.325256 
	C613.830383,347.101807 628.239624,368.862335 636.916382,395.144592 
	C637.593201,397.194763 638.203796,399.266876 638.593262,401.966003 
	C638.389160,403.726410 638.254761,404.893250 638.512085,405.966187 
	C642.925598,424.375610 643.162415,442.884857 640.146606,461.522766 
	C639.431641,465.941803 639.274048,470.451111 638.860107,474.918884 
	C628.095947,506.970978 606.716858,528.623718 574.977356,540.127014 
	C573.431335,540.687317 571.887512,541.253662 569.654358,542.068298 
	C570.708313,544.122925 571.580688,545.993286 572.597656,547.781372 
	C597.501099,591.568726 622.434875,635.338867 647.301941,679.146790 
	C648.923340,682.003174 651.982178,684.890991 647.911743,688.403198 
	C621.366455,688.225037 595.445862,688.154297 569.525208,688.083618 
	C565.036804,679.946228 560.387146,671.893066 556.087952,663.656921 
	C537.452515,627.956116 518.919312,592.201904 500.072571,555.792114 
	C498.359192,554.481689 496.922150,553.846313 494.990265,552.992126 
	C494.990265,551.453003 494.990906,549.651367 494.990204,547.849731 
	C494.983795,531.712708 495.402130,515.557617 494.718536,499.449341 
	C494.505951,494.440094 495.745087,493.806549 499.876404,493.954376 
	C505.857666,494.168396 511.856506,494.131165 517.839478,493.940247 
	C520.219971,493.864258 522.578125,493.091644 524.946472,492.636169 
	C524.746399,492.435577 524.564148,492.210938 524.339172,492.043915 
	C524.216858,491.953156 524.021912,491.960205 524.183838,491.716370 
	C549.276489,487.028290 563.469116,472.213501 568.654297,447.687195 
	C574.942749,417.941895 556.967041,388.317047 527.231934,382.489258 
	C516.134705,380.314301 504.422913,381.275146 492.979645,380.423828 
	C493.029083,379.026978 493.090210,378.012421 493.414551,376.677399 
	C494.115814,358.168030 494.653687,339.980530 494.908020,321.789093 
	C494.959045,318.139221 495.892883,316.855591 499.697021,316.909973 
	C505.769470,316.996857 511.851410,316.425110 517.929321,316.131805 
	C518.713745,316.102814 519.498230,316.073822 520.767090,316.497864 
	C524.800598,317.025909 528.349670,317.100922 531.898804,317.175903 
z"/>
<path fill="#F4F2F1" opacity="1.000000" stroke="none" 
	d="
M685.864136,413.011292 
	C686.545532,411.722321 687.226929,410.433350 688.231201,408.533447 
	C692.348206,410.561646 696.360901,412.113892 699.934692,414.363434 
	C745.621460,443.120911 791.227966,472.006042 836.906555,500.776520 
	C842.919800,504.563965 846.608093,509.463928 847.226868,516.737427 
	C847.833008,523.862671 845.625793,529.507385 839.574280,533.379700 
	C821.719238,544.804688 803.958191,556.385803 785.897888,567.478516 
	C756.411560,585.589172 726.717590,603.361877 696.557800,621.611572 
	C692.667297,622.968689 689.330200,623.991272 685.993103,625.013794 
	C685.993103,625.013794 686.000366,625.000854 685.981567,624.533997 
	C685.901367,611.163513 685.877319,598.259521 685.755676,585.356506 
	C685.719971,581.581299 686.799255,578.554810 690.367065,576.792236 
	C690.367065,576.792236 690.646851,576.697815 690.960266,576.440125 
	C692.274353,575.493835 693.275024,574.805176 694.275696,574.116577 
	C694.470825,574.088379 694.666016,574.060181 695.426208,573.709106 
	C698.431580,571.884949 700.871948,570.383606 703.312317,568.882263 
	C703.626404,568.664001 703.940552,568.445679 704.469238,567.712341 
	C704.683838,567.197266 704.693665,567.126709 704.693665,567.126709 
	C704.726868,567.330017 704.760071,567.533386 705.409058,567.556030 
	C710.132019,564.876160 714.239258,562.376953 718.346497,559.877747 
	C718.346497,559.877747 718.742432,559.795654 719.126038,559.469727 
	C728.769470,553.447632 738.029297,547.751404 747.289124,542.055176 
	C747.470337,542.036011 747.651611,542.016846 748.383423,541.685181 
	C753.951050,538.233215 758.968140,535.093811 763.985229,531.954407 
	C769.362488,528.723389 774.739319,525.491638 780.117126,522.261536 
	C784.197327,519.810791 784.359985,518.864868 780.342468,516.133118 
	C769.236328,508.581329 758.049927,501.145538 746.821899,493.775574 
	C728.943848,482.040649 710.935669,470.501740 693.165649,458.606354 
	C690.304871,456.691284 688.393738,453.357483 685.997986,449.868347 
	C685.922974,437.041840 685.893555,425.026581 685.864136,413.011292 
z"/>
<path fill="#F4F2F1" opacity="1.000000" stroke="none" 
	d="
M308.011841,460.033325 
	C278.852295,479.467804 249.692764,498.902283 219.838715,518.799622 
	C247.026855,535.701294 273.680908,552.270935 300.876465,569.096436 
	C301.914581,569.618225 302.411163,569.884277 302.907745,570.150269 
	C302.907745,570.150269 302.942780,570.057556 303.040466,570.367310 
	C304.060425,571.212830 304.982697,571.748657 305.905029,572.284424 
	C306.665436,572.859070 307.425842,573.433716 308.643372,574.329712 
	C310.385925,575.477600 311.671417,576.304199 312.956879,577.130798 
	C313.534943,577.933105 314.113007,578.735413 314.861450,580.239258 
	C315.068481,586.289978 315.105164,591.639160 315.141846,596.988403 
	C315.012695,602.686096 314.883575,608.383850 314.774231,614.909058 
	C314.558716,617.488342 314.323486,619.240234 314.088257,620.992065 
	C310.597687,623.694824 307.695923,621.182983 305.031403,619.600769 
	C290.938324,611.232544 276.927490,602.723267 262.966583,594.135376 
	C234.328995,576.519348 205.707077,558.877319 177.157394,541.119446 
	C170.137482,536.753113 162.869003,532.378174 160.765747,523.402771 
	C158.689514,514.542847 160.597427,506.396301 168.070450,501.219116 
	C182.901718,490.944122 198.181000,481.297913 213.482880,471.723877 
	C243.523834,452.927979 273.706909,434.359222 304.347961,415.326294 
	C307.576080,413.627563 310.287415,412.299072 312.998779,410.970581 
	C312.998779,410.970581 313.434753,411.076324 313.906006,411.404419 
	C314.840118,424.607513 315.392456,437.480560 315.664581,450.359558 
	C315.703186,452.186523 314.379303,454.042297 313.686035,455.884735 
	C313.381226,455.863434 313.141815,455.978363 312.611053,456.565826 
	C310.840149,457.945892 309.425995,458.989624 308.011841,460.033325 
z"/>
<path fill="#E83739" opacity="1.000000" stroke="none" 
	d="
M359.000366,316.970184 
	C358.986816,440.042511 358.973267,563.114868 358.908081,686.666748 
	C358.240906,685.242310 357.088776,683.338745 357.086945,681.434143 
	C357.004395,595.446228 357.024963,509.458221 357.028137,423.470215 
	C357.029358,390.141541 356.987762,356.812775 357.076660,323.484375 
	C357.083038,321.098083 358.003326,318.714264 358.801544,316.184448 
	C359.104431,316.039642 358.937317,316.243225 358.960297,316.424316 
	C358.983276,316.605438 359.000366,316.970184 359.000366,316.970184 
z"/>
<path fill="#00100F" opacity="1.000000" stroke="none" 
	d="
M359.092072,315.908508 
	C360.256104,315.185730 361.431488,314.079071 362.608978,314.076874 
	C405.035919,313.996796 447.463104,314.018799 489.890228,314.041199 
	C490.375153,314.041473 490.859955,314.232941 491.348755,314.625610 
	C490.523010,315.151611 489.693329,315.387207 488.404480,315.632324 
	C447.401001,315.616486 406.856781,315.579224 366.312531,315.594879 
	C363.854065,315.595825 361.395721,316.017395 358.937317,316.243225 
	C358.937317,316.243225 359.104431,316.039642 359.092072,315.908508 
z"/>
<path fill="#F4383C" opacity="1.000000" stroke="none" 
	d="
M432.960083,686.676147 
	C432.534454,685.148560 432.052826,683.387573 432.050873,681.625977 
	C432.006134,641.655396 431.998260,601.684753 432.061646,561.714172 
	C432.064575,559.870728 432.794922,558.028442 433.588562,556.080566 
	C433.990662,555.975586 433.959229,555.965027 433.946198,556.223511 
	C433.978668,556.648438 434.024139,556.814819 434.069611,556.981262 
	C434.025146,557.439148 433.980682,557.897095 433.949585,559.083984 
	C434.004211,560.865540 434.045410,561.918152 434.086609,562.970703 
	C434.032806,578.347595 433.978943,593.724487 433.941467,609.996216 
	C433.999359,612.917358 434.040924,614.943726 434.082458,616.970032 
	C434.030029,623.347168 433.977631,629.724304 433.942017,637.028320 
	C433.998291,644.294067 434.037781,650.632874 434.077271,656.971680 
	C434.022919,664.345215 433.968597,671.718750 433.948517,679.796021 
	C433.982788,680.499695 434.089050,680.978455 434.089050,680.978455 
	C434.038635,681.740601 433.988190,682.502747 433.947388,683.882385 
	C433.957031,684.499878 434.047607,684.987549 434.047607,684.987549 
	C433.740906,685.472534 433.434204,685.957520 432.960083,686.676147 
z"/>
<path fill="#15C849" opacity="1.000000" stroke="none" 
	d="
M523.859741,491.923096 
	C524.021912,491.960205 524.216858,491.953156 524.339172,492.043915 
	C524.564148,492.210938 524.746399,492.435577 524.946472,492.636169 
	C522.578125,493.091644 520.219971,493.864258 517.839478,493.940247 
	C511.856506,494.131165 505.857666,494.168396 499.876404,493.954376 
	C495.745087,493.806549 494.505951,494.440094 494.718536,499.449341 
	C495.402130,515.557617 494.983795,531.712708 494.990204,547.849731 
	C494.990906,549.651367 494.990265,551.453003 494.990265,552.992126 
	C496.922150,553.846313 498.359192,554.481689 499.907318,555.474609 
	C499.565643,555.816101 499.112915,555.800110 498.223633,555.622253 
	C497.470825,555.304382 497.210785,555.380554 497.006927,555.688965 
	C496.551086,555.714050 496.095276,555.739136 495.128418,555.544922 
	C494.155731,555.191345 493.694000,555.057007 493.120667,554.880554 
	C493.009064,554.838440 492.873291,555.034668 492.933472,554.567017 
	C492.991119,533.701599 492.988617,513.303955 493.455872,492.892456 
	C502.305328,492.644775 510.685028,492.410858 519.463501,492.129028 
	C521.194763,492.028473 522.527222,491.975769 523.859741,491.923096 
z"/>
<path fill="#151515" opacity="1.000000" stroke="none" 
	d="
M690.008667,576.591797 
	C686.799255,578.554810 685.719971,581.581299 685.755676,585.356506 
	C685.877319,598.259521 685.901367,611.163513 685.976074,624.536133 
	C685.198181,624.816284 683.705261,624.550171 683.716309,624.449646 
	C684.238953,619.701294 680.002197,615.459106 682.350037,610.455322 
	C683.073853,608.912598 682.886780,606.911072 682.986938,605.112366 
	C683.443237,596.922058 683.660889,588.711853 684.395020,580.547546 
	C684.621338,578.031433 685.876526,575.203796 690.008667,576.591797 
z"/>
<path fill="#F4383C" opacity="1.000000" stroke="none" 
	d="
M358.960297,316.424316 
	C361.395721,316.017395 363.854065,315.595825 366.312531,315.594879 
	C406.856781,315.579224 447.401001,315.616486 488.806763,315.776886 
	C490.509216,315.816589 491.350159,315.721283 492.191071,315.625977 
	C492.191071,315.625977 492.605255,315.794220 492.796875,316.144226 
	C492.939514,316.676270 492.890564,316.858276 492.631348,317.023743 
	C492.421143,317.007263 491.999451,317.008453 491.999451,317.008453 
	C447.978760,317.004669 403.958038,317.000885 359.468872,316.983643 
	C359.000366,316.970184 358.983276,316.605438 358.960297,316.424316 
z"/>
<path fill="#15C849" opacity="1.000000" stroke="none" 
	d="
M638.966370,474.548553 
	C639.274048,470.451111 639.431641,465.941803 640.146606,461.522766 
	C643.162415,442.884857 642.925598,424.375610 638.512085,405.966187 
	C638.254761,404.893250 638.389160,403.726410 638.599854,402.345337 
	C645.857422,426.097076 645.164490,450.129639 638.966370,474.548553 
z"/>
<path fill="#F4383C" opacity="1.000000" stroke="none" 
	d="
M433.975220,555.959412 
	C435.602081,555.299927 437.240082,554.110229 438.887268,554.097351 
	C456.246765,553.961914 473.607666,554.014282 491.455536,554.251831 
	C491.942871,554.488831 491.918152,554.976013 491.653259,554.990234 
	C490.932892,555.234497 490.477386,555.464539 489.556091,555.758545 
	C471.733002,555.897156 454.375671,555.971924 437.018372,556.046692 
	C436.569031,555.990417 436.119659,555.934143 435.076996,555.863281 
	C434.308838,555.887573 434.134033,555.926331 433.959229,555.965027 
	C433.959229,555.965027 433.990662,555.975586 433.975220,555.959412 
z"/>
<path fill="#0F0F0F" opacity="1.000000" stroke="none" 
	d="
M314.066406,455.874023 
	C314.379303,454.042297 315.703186,452.186523 315.664581,450.359558 
	C315.392456,437.480560 314.840118,424.607513 314.129639,411.387054 
	C314.775940,411.796570 316.411926,412.513611 316.452759,413.312256 
	C317.084503,425.661407 317.660828,438.019196 317.814972,450.380432 
	C317.837585,452.193756 315.625061,454.034973 314.066406,455.874023 
z"/>
<path fill="#15C849" opacity="1.000000" stroke="none" 
	d="
M492.841583,317.040253 
	C492.890564,316.858276 492.939514,316.676270 493.009857,316.212097 
	C501.023529,315.962494 509.015808,315.995026 517.468750,316.079681 
	C511.851410,316.425110 505.769470,316.996857 499.697021,316.909973 
	C495.892883,316.855591 494.959045,318.139221 494.908020,321.789093 
	C494.653687,339.980530 494.115814,358.168030 493.348602,376.212158 
	C492.960144,356.391724 492.900848,336.715973 492.841583,317.040253 
z"/>
<path fill="#151515" opacity="1.000000" stroke="none" 
	d="
M747.159546,541.681030 
	C738.029297,547.751404 728.769470,553.447632 719.228943,559.295654 
	C720.221741,557.674133 721.134949,555.367981 722.831726,554.220520 
	C729.789062,549.515686 736.958313,545.119812 744.140503,540.759949 
	C744.763428,540.381775 746.051025,541.098694 747.159546,541.681030 
z"/>
<path fill="#15C849" opacity="1.000000" stroke="none" 
	d="
M569.860718,688.401001 
	C595.445862,688.154297 621.366455,688.225037 647.590576,688.564331 
	C621.994812,688.794800 596.095581,688.756592 569.860718,688.401001 
z"/>
<path fill="#050505" opacity="1.000000" stroke="none" 
	d="
M685.480896,413.115540 
	C685.893555,425.026581 685.922974,437.041840 685.900146,449.522461 
	C685.239136,449.159576 684.108093,448.336151 684.100464,447.502380 
	C684.000061,436.601318 684.044312,425.698700 684.120239,414.796967 
	C684.123901,414.269012 684.757446,413.745422 685.480896,413.115540 
z"/>
<path fill="#F4383C" opacity="1.000000" stroke="none" 
	d="
M360.182098,688.411865 
	C383.381287,688.136047 406.833557,688.211609 430.596649,688.549194 
	C407.416718,688.795227 383.925934,688.779236 360.182098,688.411865 
z"/>
<path fill="#00100F" opacity="1.000000" stroke="none" 
	d="
M437.322327,556.328613 
	C454.375671,555.971924 471.733002,555.897156 489.873810,555.872925 
	C491.101257,555.999084 491.545197,556.074707 491.989136,556.150269 
	C491.563751,556.392395 491.137695,556.847168 490.713013,556.845886 
	C473.017365,556.792908 455.321838,556.699158 437.322327,556.328613 
z"/>
<path fill="#151515" opacity="1.000000" stroke="none" 
	d="
M763.847290,531.686157 
	C758.968140,535.093811 753.951050,538.233215 748.611633,541.534668 
	C748.884827,536.130493 754.540588,536.168518 757.677063,533.432434 
	C759.151550,532.146179 761.666077,532.052185 763.847290,531.686157 
z"/>
<path fill="#050505" opacity="1.000000" stroke="none" 
	d="
M315.520081,596.885132 
	C315.105164,591.639160 315.068481,586.289978 315.050964,580.473633 
	C316.001251,580.789795 317.783661,581.642578 317.726349,582.345215 
	C317.332214,587.174927 316.553345,591.973389 315.520081,596.885132 
z"/>
<path fill="#151515" opacity="1.000000" stroke="none" 
	d="
M717.988281,559.654785 
	C714.239258,562.376953 710.132019,564.876160 705.718079,567.555786 
	C705.777405,562.466553 711.585022,563.007385 713.991760,559.828308 
	C714.497192,559.160706 716.381226,559.536743 717.988281,559.654785 
z"/>
<path fill="#151515" opacity="1.000000" stroke="none" 
	d="
M686.004883,625.380249 
	C689.330200,623.991272 692.667297,622.968689 696.364746,621.906189 
	C696.726685,625.638062 693.497925,625.783508 691.107910,626.615417 
	C689.431213,627.199097 686.955872,630.234192 686.004883,625.380249 
z"/>
<path fill="#151515" opacity="1.000000" stroke="none" 
	d="
M703.154053,568.479370 
	C700.871948,570.383606 698.431580,571.884949 695.679504,573.556396 
	C695.838928,569.072937 697.682983,567.707153 703.154053,568.479370 
z"/>
<path fill="#0F0F0F" opacity="1.000000" stroke="none" 
	d="
M312.947937,410.649384 
	C310.287415,412.299072 307.576080,413.627563 304.518799,415.017822 
	C303.922729,414.698822 303.672577,414.318085 303.422394,413.937347 
	C306.580627,412.734283 309.738861,411.531250 312.947937,410.649384 
z"/>
<path fill="#050505" opacity="1.000000" stroke="none" 
	d="
M87.310684,584.926636 
	C86.847923,581.305786 86.782280,577.600220 86.812141,573.441406 
	C90.716415,576.700256 89.259590,580.767883 87.310684,584.926636 
z"/>
<path fill="#050505" opacity="1.000000" stroke="none" 
	d="
M96.187134,161.570160 
	C97.575508,158.557205 98.936562,155.916290 100.620102,153.125946 
	C99.409813,156.636917 97.877052,160.297333 95.964401,164.007416 
	C95.776276,163.352112 95.968048,162.647171 96.187134,161.570160 
z"/>
<path fill="#00100F" opacity="1.000000" stroke="none" 
	d="
M434.353333,656.664551 
	C434.037781,650.632874 433.998291,644.294067 434.022583,637.492737 
	C434.267365,643.472595 434.448395,649.914978 434.353333,656.664551 
z"/>
<path fill="#15C849" opacity="1.000000" stroke="none" 
	d="
M531.489014,317.104614 
	C528.349670,317.100922 524.800598,317.025909 521.151794,316.583130 
	C524.394470,316.487976 527.736877,316.760651 531.489014,317.104614 
z"/>
<path fill="#0F0F0F" opacity="1.000000" stroke="none" 
	d="
M308.233582,460.289673 
	C309.425995,458.989624 310.840149,457.945892 312.561890,456.766968 
	C312.674835,459.376343 311.671021,461.208344 308.233582,460.289673 
z"/>
<path fill="#151515" opacity="1.000000" stroke="none" 
	d="
M694.181641,573.772339 
	C693.275024,574.805176 692.274353,575.493835 691.039062,576.315369 
	C689.982117,573.358032 691.145447,572.426331 694.181641,573.772339 
z"/>
<path fill="#050505" opacity="1.000000" stroke="none" 
	d="
M185.910706,932.517700 
	C184.518906,932.755676 183.049896,932.648132 181.274582,932.332642 
	C182.590027,932.140564 184.211777,932.156372 185.910706,932.517700 
z"/>
<path fill="#050505" opacity="1.000000" stroke="none" 
	d="
M92.894989,857.006958 
	C92.100487,855.692627 91.595726,854.197632 91.115097,852.357788 
	C91.821068,853.617371 92.502899,855.221924 92.894989,857.006958 
z"/>
<path fill="#050505" opacity="1.000000" stroke="none" 
	d="
M314.445068,620.915039 
	C314.323486,619.240234 314.558716,617.488342 314.884277,615.365479 
	C314.917053,616.942322 314.859497,618.890137 314.445068,620.915039 
z"/>
<path fill="#050505" opacity="1.000000" stroke="none" 
	d="
M312.962769,576.731079 
	C311.671417,576.304199 310.385925,575.477600 308.936035,574.363892 
	C310.170654,574.828308 311.569641,575.579834 312.962769,576.731079 
z"/>
<path fill="#00100F" opacity="1.000000" stroke="none" 
	d="
M434.341553,616.703003 
	C434.040924,614.943726 433.999359,612.917358 434.021912,610.460938 
	C434.257507,612.165833 434.429047,614.300964 434.341553,616.703003 
z"/>
<path fill="#050505" opacity="1.000000" stroke="none" 
	d="
M88.502724,191.918060 
	C88.182152,191.110916 88.195679,190.236481 88.369064,189.073837 
	C88.631554,189.807343 88.734192,190.829056 88.502724,191.918060 
z"/>
<path fill="#050505" opacity="1.000000" stroke="none" 
	d="
M844.002625,932.090942 
	C843.341309,932.569580 842.503418,932.756958 841.339478,932.891113 
	C841.951050,932.491943 842.888550,932.145874 844.002625,932.090942 
z"/>
<path fill="#050505" opacity="1.000000" stroke="none" 
	d="
M178.929688,931.536011 
	C178.116959,931.809570 177.246002,931.757019 176.126617,931.486816 
	C176.875961,931.249451 177.873703,931.229614 178.929688,931.536011 
z"/>
<path fill="#050505" opacity="1.000000" stroke="none" 
	d="
M937.003784,183.048492 
	C937.519287,183.689011 937.752991,184.509689 937.935303,185.660370 
	C937.496582,185.069778 937.109314,184.149231 937.003784,183.048492 
z"/>
<path fill="#050505" opacity="1.000000" stroke="none" 
	d="
M94.447540,167.902008 
	C94.476768,166.922867 94.885757,165.853241 95.557442,164.539886 
	C95.489189,165.467926 95.158234,166.639725 94.447540,167.902008 
z"/>
<path fill="#050505" opacity="1.000000" stroke="none" 
	d="
M305.889038,571.908752 
	C304.982697,571.748657 304.060425,571.212830 302.994995,570.387024 
	C303.858917,570.575684 304.865997,571.054382 305.889038,571.908752 
z"/>
<path fill="#050505" opacity="1.000000" stroke="none" 
	d="
M100.186890,873.854370 
	C99.668442,873.553894 99.377640,873.090271 99.100349,872.318848 
	C99.547424,872.571167 99.980980,873.131165 100.186890,873.854370 
z"/>
<path fill="#050505" opacity="1.000000" stroke="none" 
	d="
M302.911987,569.852539 
	C302.411163,569.884277 301.914581,569.618225 301.219025,569.147217 
	C301.652130,569.146423 302.284180,569.350647 302.911987,569.852539 
z"/>
<path fill="#050505" opacity="1.000000" stroke="none" 
	d="
M157.964691,925.708374 
	C157.410706,925.929504 156.819702,925.844543 156.049255,925.518921 
	C156.555771,925.319580 157.241730,925.360962 157.964691,925.708374 
z"/>
<path fill="#050505" opacity="1.000000" stroke="none" 
	d="
M162.953812,927.583740 
	C162.427597,927.774719 161.866608,927.677429 161.128021,927.349976 
	C161.606613,927.178467 162.262817,927.237000 162.953812,927.583740 
z"/>
<path fill="#050505" opacity="1.000000" stroke="none" 
	d="
M169.942383,929.583008 
	C169.414078,929.849426 168.838623,929.812866 168.038696,929.591187 
	C168.507889,929.364075 169.201569,929.322021 169.942383,929.583008 
z"/>
<path fill="#050505" opacity="1.000000" stroke="none" 
	d="
M173.937836,930.557495 
	C173.411102,930.858887 172.833923,930.850769 172.015869,930.679932 
	C172.479111,930.427490 173.183258,930.337708 173.937836,930.557495 
z"/>
<path fill="#050505" opacity="1.000000" stroke="none" 
	d="
M853.917114,929.914795 
	C853.575684,930.405640 853.081787,930.656494 852.301147,930.866821 
	C852.597778,930.442383 853.181274,930.058594 853.917114,929.914795 
z"/>
<path fill="#050505" opacity="1.000000" stroke="none" 
	d="
M849.093872,931.271606 
	C848.684204,931.686218 848.133667,931.818970 847.298035,931.899780 
	C847.659607,931.561829 848.306335,931.275818 849.093872,931.271606 
z"/>
<path fill="#050505" opacity="1.000000" stroke="none" 
	d="
M89.470352,185.933746 
	C89.177071,185.412415 89.188362,184.839325 89.356339,184.023132 
	C89.600319,184.480682 89.687630,185.181320 89.470352,185.933746 
z"/>
<path fill="#00100F" opacity="1.000000" stroke="none" 
	d="
M434.326965,562.754639 
	C434.045410,561.918152 434.004211,560.865540 434.026794,559.422119 
	C434.249512,560.200317 434.408417,561.369446 434.326965,562.754639 
z"/>
<path fill="#050505" opacity="1.000000" stroke="none" 
	d="
M89.894409,846.026489 
	C89.448997,845.646545 89.264595,845.117676 89.122055,844.301575 
	C89.494408,844.635437 89.824913,845.256531 89.894409,846.026489 
z"/>
<path fill="#D03437" opacity="1.000000" stroke="none" 
	d="
M492.254150,556.039307 
	C491.545197,556.074707 491.101257,555.999084 490.339600,555.809082 
	C490.477386,555.464539 490.932892,555.234497 491.892212,555.010010 
	C492.395996,555.015686 492.873291,555.034668 492.873291,555.034668 
	C492.873291,555.034668 493.009064,554.838440 493.045013,555.071289 
	C493.080963,555.304199 493.052307,555.713684 493.052307,555.713684 
	C492.874573,555.785217 492.696869,555.856750 492.254150,556.039307 
z"/>
<path fill="#742425" opacity="1.000000" stroke="none" 
	d="
M492.159393,315.423279 
	C491.350159,315.721283 490.509216,315.816589 489.265991,315.767334 
	C489.693329,315.387207 490.523010,315.151611 491.681610,314.871613 
	C492.010529,314.827209 492.127716,315.220520 492.159393,315.423279 
z"/>
<path fill="#050505" opacity="1.000000" stroke="none" 
	d="
M165.954056,928.591248 
	C165.986572,928.839355 165.556915,928.918152 165.556915,928.918152 
	C165.556915,928.918152 165.126999,928.840759 164.943237,928.722717 
	C165.146851,928.517517 165.534195,928.430359 165.954056,928.591248 
z"/>
<path fill="#21AB42" opacity="1.000000" stroke="none" 
	d="
M493.368866,555.786377 
	C493.052307,555.713684 493.080963,555.304199 493.156616,555.113403 
	C493.694000,555.057007 494.155731,555.191345 494.788757,555.495544 
	C494.535187,555.729919 494.110321,555.794495 493.368866,555.786377 
z"/>
<path fill="#050505" opacity="1.000000" stroke="none" 
	d="
M90.429413,180.952347 
	C90.062958,180.707184 90.049248,180.424438 90.236115,179.945007 
	C90.450066,180.142090 90.565224,180.530899 90.429413,180.952347 
z"/>
<path fill="#00100F" opacity="1.000000" stroke="none" 
	d="
M434.200867,684.900269 
	C434.047607,684.987549 433.957031,684.499878 434.018097,684.259521 
	C434.231628,684.184387 434.400726,684.338562 434.523712,684.523376 
	C434.550873,684.564209 434.414948,684.713562 434.200867,684.900269 
z"/>
<path fill="#00100F" opacity="1.000000" stroke="none" 
	d="
M434.237152,680.888184 
	C434.089050,680.978455 433.982788,680.499695 434.031982,680.259460 
	C434.182526,680.278809 434.283875,680.538330 434.237152,680.888184 
z"/>
<path fill="#F4383C" opacity="1.000000" stroke="none" 
	d="
M358.908752,687.337646 
	C359.166962,687.239197 359.461395,687.434326 359.857422,687.880005 
	C359.621033,687.964050 359.283020,687.797668 358.908752,687.337646 
z"/>
<path fill="#00100F" opacity="1.000000" stroke="none" 
	d="
M433.946198,556.223511 
	C434.134033,555.926331 434.308838,555.887573 434.740845,555.926147 
	C434.902466,556.309265 434.729767,556.562195 434.274719,556.871826 
	C434.024139,556.814819 433.978668,556.648438 433.946198,556.223511 
z"/>
<path fill="#21AB42" opacity="1.000000" stroke="none" 
	d="
M497.251099,555.747314 
	C497.210785,555.380554 497.470825,555.304382 497.886414,555.579163 
	C497.822235,555.733887 497.658783,555.769775 497.251099,555.747314 
z"/>
<path fill="#151515" opacity="1.000000" stroke="none" 
	d="
M704.453369,567.041382 
	C704.693665,567.126709 704.683838,567.197266 704.664551,567.172852 
	C704.341003,567.069641 704.036743,566.990967 703.732544,566.912231 
	C703.892761,566.926880 704.052917,566.941467 704.453369,567.041382 
z"/>
<path fill="#050505" opacity="1.000000" stroke="none" 
	d="
M926.726685,873.186279 
	C926.849854,873.383545 926.747803,873.758179 926.387878,874.286743 
	C926.253845,874.081604 926.377625,873.722656 926.726685,873.186279 
z"/>
<path fill="#050505" opacity="1.000000" stroke="none" 
	d="
M92.577850,172.816833 
	C92.324776,172.688583 92.315323,172.517746 92.376678,172.100143 
	C92.693535,172.053757 92.939583,172.254135 93.185623,172.454498 
	C93.064240,172.561066 92.942856,172.667648 92.577850,172.816833 
z"/>
<path fill="#F4383C" opacity="1.000000" stroke="none" 
	d="
M433.745544,491.923096 
	C433.168060,490.572571 432.089874,489.223389 432.086212,487.871368 
	C431.993713,453.649567 432.000671,419.427460 432.063934,385.205536 
	C432.066406,383.865082 432.796051,382.525970 433.587921,381.077698 
	C433.988953,380.969177 433.959595,380.965637 433.945770,381.223755 
	C433.975830,381.648560 434.019745,381.815186 433.989136,382.436646 
	C433.966156,386.269592 434.017700,389.647736 434.005066,393.463287 
	C433.986023,396.256653 434.031158,398.612579 433.994019,401.432007 
	C433.965942,407.271271 434.020172,412.647003 434.013458,418.346252 
	C433.993439,419.104736 434.034363,419.539764 433.993835,420.421509 
	C433.968811,423.587128 434.025208,426.306061 434.020966,429.347748 
	C434.000122,430.104675 434.039948,430.538879 434.002380,431.312988 
	C433.977631,432.111877 434.030334,432.570831 434.021179,433.460052 
	C434.001129,435.915649 434.042908,437.940979 434.003479,440.413727 
	C433.975494,443.583801 434.028717,446.306427 434.018585,449.472473 
	C433.997314,452.599701 434.039368,455.283478 434.000244,458.431641 
	C433.969604,464.938507 434.020111,470.981049 434.006439,477.389709 
	C433.984131,478.495361 434.026001,479.234894 433.984741,480.420929 
	C433.959290,483.586609 434.016968,486.305817 434.013611,489.403381 
	C434.015076,490.541748 434.077545,491.301666 434.056396,491.984375 
	C433.972748,491.907135 433.745544,491.923096 433.745544,491.923096 
z"/>
<path fill="#F4383C" opacity="1.000000" stroke="none" 
	d="
M433.973694,380.953857 
	C435.601440,380.296539 437.240143,379.109680 438.888184,379.096558 
	C456.256439,378.958252 473.626160,379.007355 491.482727,379.283905 
	C491.950989,379.945526 491.932007,380.327972 491.908936,380.817871 
	C491.904877,380.925354 491.979156,381.127258 491.615356,381.036377 
	C490.505280,380.974884 489.758942,381.004272 488.560364,380.946136 
	C484.735901,380.913666 481.363708,380.968719 477.663086,380.956635 
	C476.892090,380.932037 476.449432,380.974548 475.544952,380.926849 
	C464.387817,380.893890 453.692535,380.951111 442.667480,380.941925 
	C441.894135,380.923309 441.450623,380.971130 440.584473,380.934814 
	C438.442535,380.895050 436.723206,380.939423 434.743988,380.912659 
	C434.309235,380.882874 434.134430,380.924255 433.959595,380.965637 
	C433.959595,380.965637 433.988953,380.969177 433.973694,380.953857 
z"/>
<path fill="#F4002A" opacity="1.000000" stroke="none" 
	d="
M491.913025,380.710388 
	C491.932007,380.327972 491.950989,379.945526 491.946472,379.276703 
	C491.946960,358.641479 491.970917,338.292694 491.997162,317.476166 
	C491.999451,317.008453 492.421143,317.007263 492.631348,317.023743 
	C492.900848,336.715973 492.960144,356.391724 493.085388,376.532654 
	C493.090210,378.012421 493.029083,379.026978 492.705017,380.455444 
	C492.265747,380.816376 492.089417,380.763397 491.913025,380.710388 
z"/>
<path fill="#F4002A" opacity="1.000000" stroke="none" 
	d="
M492.933472,554.567017 
	C492.873291,555.034668 492.395996,555.015686 492.157074,554.995850 
	C491.918152,554.976013 491.942871,554.488831 491.917389,554.246277 
	C491.909210,534.339722 491.926544,514.675781 491.982422,494.274811 
	C492.036224,493.352448 492.051483,493.167084 492.292114,492.912720 
	C492.517487,492.843689 492.986115,492.906250 492.986115,492.906250 
	C492.988617,513.303955 492.991119,533.701599 492.933472,554.567017 
z"/>
<path fill="#F4383C" opacity="1.000000" stroke="none" 
	d="
M492.066772,492.981720 
	C492.051483,493.167084 492.036224,493.352448 491.963135,493.812012 
	C474.591248,494.059082 457.277100,494.045990 439.963104,493.984009 
	C438.160950,493.977539 436.359802,493.681000 434.541565,493.193237 
	C434.524963,492.867432 434.973724,492.667297 435.441193,492.723450 
	C453.615448,492.730865 471.322266,492.682129 489.263916,492.695740 
	C489.498779,492.758087 489.964447,492.619019 490.311707,492.697632 
	C491.128265,492.844757 491.597504,492.913239 492.066772,492.981720 
z"/>
<path fill="#151515" opacity="1.000000" stroke="none" 
	d="
M434.973724,492.667297 
	C434.973724,492.667297 434.524963,492.867432 434.279358,492.865234 
	C434.033783,492.863007 433.953918,492.373596 433.849731,492.148346 
	C433.745544,491.923096 433.972748,491.907135 434.227051,492.036682 
	C434.705627,492.274200 434.869751,492.441193 434.973724,492.667297 
z"/>
<path fill="#151515" opacity="1.000000" stroke="none" 
	d="
M491.908966,380.817871 
	C492.089417,380.763397 492.265747,380.816376 492.716736,380.837769 
	C504.422913,381.275146 516.134705,380.314301 527.231934,382.489258 
	C556.967041,388.317047 574.942749,417.941895 568.654297,447.687195 
	C563.469116,472.213501 549.276489,487.028290 524.183838,491.716370 
	C522.527222,491.975769 521.194763,492.028473 519.181396,491.807526 
	C516.705627,491.359161 514.910950,491.034882 513.115723,491.032288 
	C488.854767,490.997162 464.593445,491.055267 440.333160,490.919434 
	C438.243530,490.907745 436.160675,489.685089 434.074646,489.024994 
	C434.016968,486.305817 433.959290,483.586609 434.218597,480.235291 
	C434.380585,478.743286 434.225616,477.883453 434.070618,477.023590 
	C434.020111,470.981049 433.969604,464.938507 434.266785,458.146973 
	C434.436951,454.608337 434.259430,451.818726 434.081909,449.029083 
	C434.028717,446.306427 433.975494,443.583801 434.262573,440.147095 
	C434.429596,437.298645 434.256317,435.164215 434.083038,433.029785 
	C434.030334,432.570831 433.977631,432.111877 434.211151,431.167664 
	C434.358765,430.129944 434.220184,429.577454 434.081635,429.024994 
	C434.025208,426.306061 433.968811,423.587128 434.203400,420.275787 
	C434.354401,419.129852 434.214386,418.576294 434.074402,418.022766 
	C434.020172,412.647003 433.965942,407.271271 434.258606,401.155579 
	C434.426788,397.952393 434.248016,395.489105 434.069275,393.025848 
	C434.017700,389.647736 433.966156,386.269592 434.197693,382.325195 
	C434.733368,381.553345 434.907745,381.294952 435.003906,380.983795 
	C436.723206,380.939423 438.442535,380.895050 440.731812,381.153992 
	C441.866913,381.307678 442.432098,381.158020 442.997253,381.008362 
	C453.692535,380.951111 464.387817,380.893890 475.690643,381.145935 
	C476.862610,381.311432 477.427063,381.167603 477.991486,381.023743 
	C481.363708,380.968719 484.735901,380.913666 488.740723,381.183838 
	C490.241913,381.381805 491.110535,381.254517 491.979156,381.127258 
	C491.979156,381.127258 491.904877,380.925354 491.908966,380.817871 
z"/>
<path fill="#00100F" opacity="1.000000" stroke="none" 
	d="
M434.013611,489.403381 
	C436.160675,489.685089 438.243530,490.907745 440.333160,490.919434 
	C464.593445,491.055267 488.854767,490.997162 513.115723,491.032288 
	C514.910950,491.034882 516.705627,491.359161 518.782593,491.855408 
	C510.685028,492.410858 502.305328,492.644775 493.455872,492.892456 
	C492.986115,492.906250 492.517487,492.843689 492.292114,492.912720 
	C491.597504,492.913239 491.128265,492.844757 490.217102,492.580444 
	C489.461029,492.241302 489.212311,492.324249 489.029053,492.633362 
	C471.322266,492.682129 453.615448,492.730865 435.441193,492.723450 
	C434.869751,492.441193 434.705627,492.274200 434.310699,492.113953 
	C434.077545,491.301666 434.015076,490.541748 434.013611,489.403381 
z"/>
<path fill="#00100F" opacity="1.000000" stroke="none" 
	d="
M434.018555,449.472473 
	C434.259430,451.818726 434.436951,454.608337 434.347961,457.682617 
	C434.039368,455.283478 433.997314,452.599701 434.018555,449.472473 
z"/>
<path fill="#00100F" opacity="1.000000" stroke="none" 
	d="
M434.005066,393.463287 
	C434.248016,395.489105 434.426788,397.952393 434.340912,400.692078 
	C434.031158,398.612579 433.986023,396.256653 434.005066,393.463287 
z"/>
<path fill="#00100F" opacity="1.000000" stroke="none" 
	d="
M434.021179,433.460052 
	C434.256317,435.164215 434.429596,437.298645 434.343750,439.699707 
	C434.042908,437.940979 434.001129,435.915649 434.021179,433.460052 
z"/>
<path fill="#00100F" opacity="1.000000" stroke="none" 
	d="
M434.006439,477.389709 
	C434.225616,477.883453 434.380585,478.743286 434.301727,479.788788 
	C434.026001,479.234894 433.984131,478.495361 434.006439,477.389709 
z"/>
<path fill="#00100F" opacity="1.000000" stroke="none" 
	d="
M434.013458,418.346252 
	C434.214386,418.576294 434.354401,419.129852 434.284851,419.829102 
	C434.034363,419.539764 433.993439,419.104736 434.013458,418.346252 
z"/>
<path fill="#00100F" opacity="1.000000" stroke="none" 
	d="
M434.020966,429.347748 
	C434.220184,429.577454 434.358765,430.129944 434.288574,430.827728 
	C434.039948,430.538879 434.000122,430.104675 434.020966,429.347748 
z"/>
<path fill="#00100F" opacity="1.000000" stroke="none" 
	d="
M434.743988,380.912659 
	C434.907745,381.294952 434.733368,381.553345 434.272217,381.870392 
	C434.019745,381.815186 433.975830,381.648560 433.945770,381.223755 
	C434.134430,380.924255 434.309235,380.882874 434.743988,380.912659 
z"/>
<path fill="#00100F" opacity="1.000000" stroke="none" 
	d="
M491.615356,381.036377 
	C491.110535,381.254517 490.241913,381.381805 489.192963,381.271362 
	C489.758942,381.004272 490.505280,380.974884 491.615356,381.036377 
z"/>
<path fill="#00100F" opacity="1.000000" stroke="none" 
	d="
M477.663086,380.956665 
	C477.427063,381.167603 476.862610,381.311432 476.152496,381.236145 
	C476.449432,380.974548 476.892090,380.932037 477.663086,380.956665 
z"/>
<path fill="#00100F" opacity="1.000000" stroke="none" 
	d="
M442.667480,380.941925 
	C442.432098,381.158020 441.866913,381.307678 441.154419,381.238129 
	C441.450623,380.971130 441.894135,380.923309 442.667480,380.941925 
z"/>
<path fill="#151515" opacity="1.000000" stroke="none" 
	d="
M489.263916,492.695740 
	C489.212311,492.324249 489.461029,492.241302 489.869812,492.501801 
	C489.964447,492.619019 489.498779,492.758087 489.263916,492.695740 
z"/>
</svg>